<svg width="66" height="65" viewBox="0 0 66 65" fill="none" xmlns="http://www.w3.org/2000/svg">
<path d="M33.0005 0C15.3873 0 0.976562 14.5265 0.976562 32.2811C0.976562 50.0356 15.3873 64.5621 33.0005 64.5621C50.6136 64.5621 65.0244 50.0356 65.0244 32.2811C65.0244 14.5265 50.6136 0 33.0005 0ZM15.1586 50.2662C10.355 45.4241 7.83883 38.9679 7.83883 32.7422L32.7717 57.6448C26.3669 57.4142 19.9622 55.1084 15.1586 50.2662ZM38.4903 56.953L8.52505 26.7472C11.0412 15.4488 21.1059 6.91737 33.0005 6.91737C41.4639 6.91737 48.7837 11.0678 53.3585 17.2934L49.9274 20.291C46.0388 14.9876 39.8627 11.529 33.0005 11.529C24.0795 11.529 16.531 17.2934 13.5574 25.3637L39.8627 51.8803C46.4963 49.5745 51.5286 43.81 53.1298 36.8926H42.1502V32.2811H58.1621C58.1621 44.2712 49.6986 54.4166 38.4903 56.953Z" fill="#9360FF"/>
</svg>
