<svg width="66" height="28" viewBox="0 0 66 28" fill="none" xmlns="http://www.w3.org/2000/svg">
<path d="M39.8453 9.27876C38.4142 9.27876 37.3486 9.98147 37.3486 11.6727C37.3486 12.9469 38.0509 13.8314 39.7683 13.8314C41.2238 13.8314 42.2124 12.9738 42.2124 11.62C42.2124 10.086 41.3277 9.27886 39.8453 9.27886V9.27876ZM36.9832 21.2196C36.6446 21.6352 36.3071 22.0768 36.3071 22.598C36.3071 23.6376 37.633 23.9505 39.4542 23.9505C40.963 23.9505 43.0181 23.8449 43.0181 22.4421C43.0181 21.6084 42.0294 21.5568 40.7801 21.4784L36.9831 21.2196H36.9832ZM44.6826 9.35743C45.15 9.95588 45.645 10.7884 45.645 11.9849C45.645 14.8721 43.3819 16.5628 40.1052 16.5628C39.2719 16.5628 38.5175 16.459 38.0498 16.3292L37.1911 17.7076L39.74 17.8633C44.2404 18.15 46.8928 18.2803 46.8928 21.7387C46.8928 24.7308 44.2662 26.4206 39.74 26.4206C35.032 26.4206 33.2373 25.2239 33.2373 23.1693C33.2373 21.9982 33.7576 21.3754 34.6681 20.5157C33.8094 20.1527 33.5237 19.5028 33.5237 18.8002C33.5237 18.2275 33.8094 17.7074 34.2783 17.2128C34.7464 16.7191 35.2664 16.2242 35.8908 15.6521C34.6164 15.028 33.6537 13.6753 33.6537 11.7502C33.6537 8.75922 35.6308 6.70508 39.6098 6.70508C40.7285 6.70508 41.4051 6.80804 42.0034 6.96508H47.076V9.1755L44.6826 9.35764" fill="#565656"/>
<path d="M51.6561 4.63068C50.173 4.63068 49.3149 3.77153 49.3149 2.28832C49.3149 0.806976 50.173 0 51.6561 0C53.1648 0 54.0232 0.806976 54.0232 2.28832C54.0232 3.77151 53.1648 4.63068 51.6561 4.63068ZM48.3 20.2623V18.2085L49.627 18.0269C49.9914 17.9741 50.0431 17.8967 50.0431 17.5056V9.85837C50.0431 9.57283 49.9654 9.38996 49.7044 9.31254L48.3 8.81788L48.586 6.71171H53.9709V17.5058C53.9709 17.9228 53.996 17.9743 54.3872 18.0271L55.7139 18.2087V20.2625H48.2998" fill="#565656"/>
<path d="M65.9994 19.2545C64.8804 19.8 63.2421 20.2943 61.7586 20.2943C58.6634 20.2943 57.4933 19.047 57.4933 16.1064V9.29197C57.4933 9.13623 57.4933 9.03173 57.2844 9.03173H55.4639V6.71682C57.7536 6.45601 58.6633 5.31127 58.9495 2.47607H61.4209V6.17095C61.4209 6.35237 61.4209 6.43095 61.6292 6.43095L65.2966 6.43095V9.03169H61.421V15.2482C61.421 16.7831 61.7856 17.3808 63.1894 17.3808C63.9187 17.3808 64.6722 17.1993 65.2965 16.965L65.9995 19.2547" fill="#565656"/>
<path d="M27.4585 12.4285L15.5642 0.535712C14.8799 -0.149274 13.769 -0.149274 13.0838 0.535712L10.6141 3.00566L13.7468 6.1384C14.4751 5.8925 15.3099 6.05737 15.8901 6.63774C16.4734 7.22173 16.6371 8.06361 16.385 8.79434L19.4044 11.8137C20.1349 11.562 20.9777 11.7247 21.561 12.309C22.3765 13.1242 22.3765 14.4453 21.561 15.2607C20.7454 16.0764 19.4244 16.0764 18.6083 15.2607C17.9951 14.6471 17.8435 13.7461 18.154 12.9906L15.3381 10.1747L15.3379 17.5848C15.5367 17.6832 15.7243 17.8145 15.89 17.9795C16.7052 18.7947 16.7052 20.1154 15.89 20.932C15.0745 21.7471 13.7529 21.7471 12.9383 20.932C12.1229 20.1155 12.1229 18.7947 12.9383 17.9795C13.1398 17.7784 13.3729 17.6261 13.6217 17.5241L13.6217 10.0451C13.3728 9.9435 13.1399 9.79238 12.9381 9.58962C12.3205 8.9725 12.1718 8.06605 12.4885 7.30764L9.40023 4.21889L1.24535 12.3735C0.560145 13.059 0.560145 14.1699 1.24535 14.855L13.1389 26.7478C13.8236 27.4327 14.9341 27.4327 15.6198 26.7478L27.4583 14.9111C28.1433 14.2258 28.1433 13.1146 27.4583 12.4295" fill="#F16529"/>
</svg>
