<svg width="36" height="79" viewBox="0 0 36 79" fill="none" xmlns="http://www.w3.org/2000/svg">
<path fill-rule="evenodd" clip-rule="evenodd" d="M18.1623 61.7305C13.579 61.7305 10.0374 61.042 8.3344 60.6317C7.16979 60.3511 6.23461 60.0607 5.5242 59.7625L7.79554 63.6431L8.68402 75.7681C8.68402 77.1274 13.0022 78.2293 18.3288 78.2293C23.6554 78.2293 27.9735 77.1274 27.9735 75.7681L28.677 63.5111L30.8262 59.7511C30.1127 60.0534 29.1692 60.3476 27.99 60.6317C26.2869 61.042 22.7454 61.7305 18.1623 61.7305ZM30.8999 22.2752C27.536 22.745 23.0715 23.0039 18.3288 23.0039C13.5861 23.0039 9.12156 22.745 5.75769 22.2752C4.09138 22.0425 2.77308 21.768 1.83932 21.4598C1.61659 21.3861 1.23915 21.2604 0.875923 21.0602L2.96007 40.2415C3.05692 39.9112 3.16473 39.5813 3.28432 39.2525C3.52898 38.5789 3.81201 37.9202 4.13321 37.2768C4.45461 36.6336 4.80444 36.0255 5.18269 35.4527C5.56074 34.8802 5.96336 34.3529 6.38994 33.8711C6.81671 33.3895 7.25446 32.9753 7.70397 32.6281C8.15329 32.2814 8.60687 32.0101 9.06471 31.8148C9.52276 31.6195 9.97634 31.5216 10.4257 31.5216C10.9432 31.5216 11.4439 31.6631 11.9275 31.9461C12.4109 32.229 12.8629 32.6872 13.284 33.3205C13.3806 33.462 13.4419 33.6051 13.4673 33.7499C13.4931 33.8949 13.5057 34.0313 13.5057 34.1592C13.5057 34.4623 13.4332 34.7017 13.2882 34.8767C13.1433 35.052 12.9711 35.1395 12.7721 35.1395C12.5898 35.1395 12.4207 35.0434 12.2643 34.8516C12.1078 34.6595 11.933 34.385 11.7395 34.0279C11.5574 33.7044 11.357 33.4705 11.1381 33.3256C10.919 33.1808 10.6817 33.1083 10.4257 33.1083C10.0275 33.1083 9.60235 33.2734 9.15019 33.6035C8.69783 33.9334 8.24993 34.3698 7.80651 34.9121C7.36267 35.4546 6.93752 36.0742 6.53084 36.7717C6.12416 37.4689 5.76418 38.183 5.45131 38.9139C5.13843 39.6452 4.88992 40.3662 4.70495 41.0768C4.51999 41.7874 4.42761 42.4258 4.42761 42.9916C4.42761 43.1804 4.4406 43.3743 4.46598 43.5727C4.49176 43.7717 4.53988 43.9518 4.61115 44.1136C4.68201 44.2754 4.77886 44.4082 4.90108 44.5124C5.02351 44.6171 5.17843 44.6691 5.36603 44.6691C5.57658 44.6691 5.81535 44.5984 6.08295 44.4569C6.35014 44.3158 6.62749 44.1302 6.91458 43.9014C7.20187 43.6722 7.49059 43.4129 7.78072 43.123C8.07106 42.8335 8.3411 42.5405 8.59124 42.2438C8.84137 41.9476 9.06329 41.6628 9.25658 41.3901C9.45007 41.1172 9.59504 40.8797 9.69188 40.6774L10.4853 38.3025C10.582 38.0467 10.7085 37.8648 10.865 37.757C11.0214 37.6492 11.1822 37.5952 11.3472 37.5952C11.4266 37.5952 11.5062 37.6088 11.586 37.6356C11.6658 37.6626 11.7366 37.7048 11.7994 37.7619C11.8619 37.8193 11.9117 37.8932 11.9486 37.9844C11.9856 38.0751 12.004 38.1813 12.004 38.3025C12.004 38.626 11.9756 38.9289 11.9188 39.2121C11.8619 39.4954 11.7894 39.7713 11.7011 40.0409C11.613 40.3101 11.5147 40.5814 11.4067 40.8543C11.2987 41.1272 11.1933 41.4118 11.0912 41.7084C11.0685 41.7422 11.0272 41.8479 10.9673 42.0264C10.9077 42.2053 10.8354 42.4294 10.7499 42.6986C10.6646 42.9683 10.572 43.2696 10.4726 43.6032C10.3729 43.9368 10.2707 44.2768 10.1656 44.6238C10.0602 44.9708 9.95928 45.3111 9.86264 45.6447C9.76579 45.9781 9.67889 46.2796 9.60235 46.5492C9.5256 46.8184 9.46164 47.044 9.41028 47.2261C9.35911 47.408 9.32784 47.5156 9.31647 47.5497C9.28805 47.6572 9.24237 47.7769 9.18004 47.9081C9.1175 48.0395 9.0436 48.1643 8.95812 48.2821C8.87284 48.3999 8.77904 48.4979 8.67651 48.5751C8.57418 48.6524 8.46901 48.6914 8.36079 48.6914C8.17887 48.6914 8.04649 48.6307 7.96426 48.5097C7.88163 48.3883 7.84062 48.166 7.84062 47.8427V47.7012C7.84062 47.6539 7.84326 47.6031 7.84894 47.5497C7.85442 47.4417 7.89726 47.2395 7.97706 46.9429C8.05665 46.6467 8.15187 46.3116 8.26293 45.9377C8.37379 45.5637 8.49337 45.1763 8.62128 44.7753C8.74899 44.3745 8.86432 44.0159 8.96685 43.6992C8.66494 44.0362 8.33825 44.3712 7.98558 44.7048C7.63271 45.0382 7.27151 45.3381 6.90199 45.6041C6.53206 45.8702 6.15949 46.0875 5.78428 46.256C5.40887 46.4243 5.04767 46.5088 4.70069 46.5088C4.30254 46.5088 3.95981 46.4211 3.67232 46.2459C3.62054 46.214 3.57161 46.1785 3.52288 46.1431L4.68262 58.3025C4.98453 59.0592 10.6683 60.9184 18.1623 60.9184C25.6597 60.9184 31.3457 59.0573 31.6424 58.3012L33.3083 43.8448C33.1704 43.9713 33.0362 44.0949 32.9079 44.2147C32.4299 44.6591 31.979 45.0415 31.5553 45.3614C31.1317 45.6814 30.7177 45.9293 30.3139 46.1041C29.9099 46.2796 29.4776 46.3671 29.0169 46.3671C28.5847 46.3671 28.2503 46.2727 28.0143 46.084C27.7784 45.8956 27.6602 45.6364 27.6602 45.306V45.2303C27.6602 45.2067 27.6631 45.1779 27.669 45.1442C27.6915 44.9424 27.78 44.7095 27.9335 44.447C28.087 44.184 28.2718 43.9114 28.4878 43.6285C28.704 43.3455 28.9343 43.059 29.1789 42.7693C29.4236 42.4798 29.6498 42.2053 29.8575 41.9456C30.065 41.6867 30.2369 41.4492 30.3734 41.2333C30.5102 41.0177 30.5785 40.8427 30.5785 40.7079C30.5785 40.6271 30.5498 40.5631 30.4932 40.5156C30.4361 40.4689 30.3421 40.445 30.2116 40.445C29.984 40.445 29.7493 40.504 29.5079 40.6218C29.2658 40.7396 29.0267 40.8983 28.7907 41.0969C28.5548 41.2957 28.3244 41.5233 28.0996 41.7791C27.8753 42.0351 27.6647 42.3013 27.4684 42.5772C27.272 42.8538 27.0932 43.1317 26.9309 43.4113C26.7687 43.6909 26.6309 43.9485 26.517 44.184C26.4828 44.2584 26.4345 44.3629 26.3718 44.4973C26.3092 44.6321 26.241 44.784 26.1671 44.9523C26.093 45.1208 26.0148 45.2944 25.9324 45.4725C25.85 45.6514 25.7747 45.8199 25.7064 45.9781C25.6382 46.1364 25.5771 46.2775 25.5233 46.4024C25.4689 46.5269 25.4305 46.613 25.4078 46.6603C25.3793 46.7208 25.3324 46.8351 25.2671 47.0036C25.2017 47.1721 25.1262 47.3693 25.0411 47.5948C24.9558 47.8204 24.8661 48.0579 24.7721 48.3075C24.6787 48.5564 24.5902 48.7925 24.5077 49.0148C24.4251 49.237 24.3526 49.4325 24.2903 49.601C24.2277 49.7691 24.1875 49.8838 24.1705 49.9445C24.1138 50.1198 24.0468 50.2844 23.9703 50.4399C23.8933 50.5947 23.8054 50.7311 23.7057 50.8493C23.6062 50.967 23.4925 51.0612 23.3644 51.1319C23.2363 51.2029 23.0928 51.2381 22.9338 51.2381C22.7287 51.2381 22.5598 51.1889 22.4258 51.0915C22.2924 50.9938 22.2254 50.8066 22.2254 50.5307C22.2254 50.3959 22.2425 50.2578 22.2766 50.1165C22.3107 49.975 22.3535 49.8349 22.4047 49.697C22.4559 49.5586 22.5086 49.4242 22.5626 49.2928C22.6165 49.1612 22.6664 49.0352 22.7117 48.9137C23.0191 48.2401 23.3319 47.5648 23.6503 46.8875C23.9687 46.2105 24.2744 45.5403 24.5676 44.8766C24.6285 44.7381 24.6846 44.6025 24.7441 44.4648C24.7262 44.4823 24.7087 44.5006 24.6913 44.5176C24.3213 44.875 23.9532 45.1897 23.5863 45.4626C23.2193 45.7354 22.8552 45.9527 22.4944 46.1145C22.133 46.2759 21.7818 46.3569 21.4403 46.3569C21.2072 46.3569 21.0125 46.32 20.8561 46.2459C20.6996 46.1716 20.5747 46.0704 20.4807 45.9427C20.3867 45.8148 20.3197 45.6632 20.2799 45.4879C20.2665 45.428 20.2582 45.3655 20.2495 45.3032C20.1496 45.3809 20.0489 45.4567 19.9474 45.5285C19.5947 45.7775 19.2477 45.9781 18.9064 46.1295C18.5653 46.2812 18.2579 46.3569 17.9852 46.3569C17.712 46.3569 17.4902 46.266 17.3193 46.084C17.1487 45.9023 17.0637 45.5923 17.0637 45.1546C17.0637 44.8443 17.1091 44.4839 17.1999 44.0732C17.0521 44.3359 16.8673 44.6021 16.6456 44.8713C16.4235 45.141 16.1705 45.3868 15.8863 45.6093C15.6014 45.8315 15.2831 46.0118 14.9306 46.1498C14.5777 46.2879 14.1938 46.3569 13.7788 46.3569C13.591 46.3569 13.4105 46.3334 13.2369 46.2863C13.0633 46.239 12.9112 46.1582 12.7804 46.0436C12.6495 45.9293 12.5445 45.7758 12.4647 45.584C12.3851 45.3921 12.3453 45.1509 12.3453 44.8614C12.3453 44.8547 12.3567 44.7519 12.3795 44.553C12.4022 44.3542 12.4747 44.0409 12.5971 43.6131C12.7193 43.1855 12.9086 42.6312 13.1642 41.9507C13.4204 41.2703 13.7816 40.445 14.248 39.4751C14.3674 39.2188 14.5054 39.0353 14.6616 38.9242C14.8183 38.813 14.9872 38.7573 15.1691 38.7573C15.2489 38.7573 15.3314 38.7693 15.4166 38.7927C15.5023 38.8164 15.5817 38.8534 15.6558 38.9039C15.7295 38.9545 15.7894 39.0186 15.8351 39.096C15.8802 39.1734 15.9033 39.2625 15.9033 39.3636C15.9033 39.431 15.8946 39.4954 15.8775 39.5555C15.8489 39.6706 15.7878 39.82 15.6944 40.0052C15.6004 40.1908 15.4908 40.4029 15.3655 40.6421C15.2406 40.8813 15.1082 41.1389 14.969 41.4155C14.8295 41.6914 14.7001 41.9777 14.5808 42.2743C14.4614 42.5709 14.3588 42.8722 14.2736 43.1788C14.1883 43.4854 14.1398 43.7837 14.1286 44.0732C14.1286 44.1944 14.1568 44.3055 14.2139 44.4066C14.2707 44.5077 14.3647 44.558 14.4955 44.558C14.865 44.558 15.2177 44.4366 15.5535 44.1944C15.8889 43.9518 16.1987 43.6503 16.4834 43.2899C16.7678 42.9295 17.0251 42.5419 17.2555 42.1275C17.486 41.7131 17.6778 41.3345 17.8313 40.9907C17.9396 40.7619 18.0348 40.5156 18.1172 40.2531C18.1996 39.9902 18.2894 39.7479 18.386 39.5254C18.4829 39.3029 18.5935 39.1177 18.7188 38.9695C18.8437 38.8215 19.0004 38.7472 19.1878 38.7472C19.3929 38.7472 19.5547 38.8247 19.6745 38.9797C19.7939 39.1348 19.8534 39.3199 19.8534 39.5354C19.8534 39.6566 19.8152 39.8237 19.7382 40.0358C19.6613 40.248 19.5646 40.4906 19.4481 40.7635C19.3314 41.0364 19.2049 41.3278 19.0686 41.6374C18.9322 41.9476 18.8053 42.2623 18.6892 42.5825C18.572 42.9025 18.4758 43.2158 18.3988 43.5224C18.3219 43.8287 18.2837 44.1136 18.2837 44.3761C18.2837 44.6187 18.4088 44.7402 18.6589 44.7402C18.8353 44.7402 19.0542 44.6795 19.3159 44.558C19.5776 44.4366 19.8521 44.2667 20.1392 44.0476C20.2109 43.993 20.2832 43.9359 20.3549 43.876C20.4351 43.5453 20.5291 43.2395 20.6385 42.9616C20.8375 42.4357 21.0395 41.9139 21.2443 41.3952C21.449 40.8764 21.6366 40.4013 21.8076 39.9701L24.3926 33.4518C24.4949 33.1891 24.633 33.0037 24.8062 32.8959C24.98 32.7883 25.1548 32.7343 25.3312 32.7343C25.5073 32.7343 25.6679 32.7916 25.813 32.9061C25.9582 33.0208 26.0309 33.206 26.0309 33.462C26.0309 33.5832 26.0065 33.7113 25.9582 33.8459C25.9099 33.9807 25.8488 34.1255 25.7747 34.2804C25.6327 34.5974 25.4634 34.9846 25.2671 35.4426C25.0707 35.9008 24.8602 36.3995 24.6356 36.9384C24.4109 37.4774 24.1804 38.0382 23.9445 38.6209C23.7086 39.2038 23.4781 39.7713 23.2534 40.3237C23.029 40.8764 22.8183 41.3998 22.6219 41.8952C22.4258 42.3904 22.2569 42.8201 22.1143 43.1837C22.0518 43.3386 21.9907 43.5191 21.9312 43.7246C21.8713 43.9298 21.8417 44.1136 21.8417 44.2754C21.8417 44.3761 21.8587 44.4569 21.8928 44.5176C21.9269 44.5783 21.9923 44.6088 22.089 44.6088C22.2084 44.6088 22.3576 44.5668 22.5369 44.4823C22.7159 44.3982 22.9092 44.2868 23.1169 44.1487C23.3248 44.0109 23.5409 43.8525 23.7652 43.6738C23.9902 43.4954 24.2133 43.3102 24.435 43.1181C24.6572 42.9258 24.8689 42.734 25.0707 42.5419C25.2726 42.35 25.4535 42.1732 25.6128 42.0114C25.6502 41.9726 25.6949 41.9452 25.744 41.9247C25.84 41.6378 25.9277 41.3568 26.0051 41.0819C26.0506 40.9605 26.1133 40.7889 26.1929 40.5664C26.2723 40.3439 26.3635 40.125 26.4658 39.9094C26.5681 39.6939 26.6836 39.5067 26.8111 39.3486C26.9393 39.1904 27.0773 39.111 27.2251 39.111C27.4527 39.111 27.6178 39.1634 27.7201 39.2676C27.8225 39.3723 27.8736 39.5254 27.8736 39.7276C27.8736 39.768 27.8679 39.832 27.8566 39.9195C27.845 40.0072 27.8312 40.1 27.8141 40.1977C27.7971 40.2951 27.7784 40.3879 27.7585 40.4756C27.7384 40.5631 27.7201 40.6271 27.7031 40.6675C27.9132 40.4383 28.1408 40.2111 28.3855 39.9855C28.6301 39.7597 28.8831 39.5555 29.1448 39.374C29.4067 39.1918 29.6739 39.044 29.9472 38.9289C30.2199 38.8148 30.4932 38.7573 30.7661 38.7573C30.9537 38.7573 31.14 38.7843 31.3248 38.8384C31.5096 38.8922 31.6748 38.9713 31.8196 39.0757C31.9648 39.1805 32.0829 39.3116 32.1737 39.47C32.2647 39.6282 32.3101 39.8117 32.3101 40.0206C32.3101 40.2972 32.2407 40.5918 32.1012 40.905C31.9619 41.2183 31.7871 41.5332 31.5766 41.8496C31.366 42.1665 31.1384 42.4745 30.8942 42.7744C30.6495 43.0743 30.4207 43.3469 30.2073 43.5928C29.9939 43.8391 29.8146 44.0476 29.6695 44.2194C29.5249 44.3916 29.449 44.5077 29.4435 44.5684C29.4435 44.6492 29.4693 44.7148 29.5204 44.7655C29.5716 44.8159 29.6569 44.8413 29.7763 44.8413C29.8729 44.8413 30.0154 44.7873 30.2028 44.6795C30.3904 44.5716 30.6538 44.3848 30.992 44.1187C31.3303 43.8525 31.7601 43.4954 32.2805 43.0473C32.6374 42.7403 33.0553 42.3742 33.5261 41.9578L35.7826 21.0596C35.4192 21.2602 35.0412 21.3861 34.8182 21.4598C33.8847 21.768 32.5664 22.0425 30.8999 22.2752ZM18.3154 17.3169C8.55987 17.3169 0.651367 18.4077 0.651367 19.7533C0.651367 21.0989 8.55987 22.1897 18.3154 22.1897C28.0709 22.1897 35.9794 21.0989 35.9794 19.7533C35.9794 18.4077 28.0709 17.3169 18.3154 17.3169ZM25.3684 20.4654C25.3684 20.7811 24.4285 21.0371 23.269 21.0371C22.1097 21.0371 21.1698 20.7811 21.1698 20.4654C21.1698 20.1494 22.1097 19.8934 23.269 19.8934C24.4285 19.8934 25.3684 20.1494 25.3684 20.4654Z" fill="#DA4648"/>
<path fill-rule="evenodd" clip-rule="evenodd" d="M21.5959 20.2121C21.5855 20.2287 21.5801 20.2457 21.5801 20.2629C21.5801 20.4674 22.3368 20.6328 23.2699 20.6328C24.2033 20.6328 24.9598 20.4674 24.9598 20.2629L27.167 11.3135L35.9448 2.04608C35.9476 2.04326 35.9504 2.04033 35.9531 2.0373C36.1389 1.82716 35.7618 1.17684 35.1363 0.619108C34.5107 0.0613719 33.8352 -0.12745 33.6253 0.0849239C33.6237 0.0865122 33.6222 0.0881229 33.6207 0.0897559L24.2553 9.94469L21.5959 20.2121Z" fill="#DA4648"/>
</svg>
