<svg width="54" height="53" viewBox="0 0 54 53" fill="none" xmlns="http://www.w3.org/2000/svg">
<g clip-path="url(#clip0)">
<path d="M2.25 2.25537L51.7501 2.25537L51.7501 50.4055L2.25 50.4055L2.25 2.25537Z" fill="url(#paint0_radial)"/>
<path d="M2.24997 2.25583L51.7501 2.25583L51.7501 50.406L2.24997 50.406L2.24997 2.25583ZM0 52.6561L54.0001 52.6561L54.0001 0.00585938L0 0.00585938L0 52.6561ZM35.37 18.7709C35.37 18.5909 35.4375 18.5009 35.6401 18.5009H39.1726C39.3524 18.5009 39.4425 18.5683 39.4425 18.7709L39.4425 36.5235C39.4425 36.7034 39.3975 36.7935 39.1726 36.7935H35.6851C35.4601 36.7935 35.3925 36.681 35.3925 36.501L35.3925 18.7709H35.37ZM35.1226 13.6634C35.1226 12.2234 36.135 11.3684 37.4176 11.3684C38.7901 11.3684 39.7126 12.2909 39.7126 13.6634C39.7126 15.1483 38.7451 15.9583 37.3726 15.9583C36.0675 15.9584 35.1226 15.1483 35.1226 13.6634ZM24.9975 26.1734C24.3676 23.6759 22.8826 18.2309 22.32 15.5984H22.275C21.8025 18.2309 20.6101 22.6858 19.6651 26.1734H24.9975ZM18.7426 29.8185L16.965 36.5685C16.92 36.7484 16.8525 36.7934 16.6276 36.7934H13.32C13.0951 36.7934 13.05 36.7259 13.0951 36.4559L19.485 14.0908C19.5975 13.6859 19.665 13.3258 19.71 12.2234C19.71 12.0659 19.7775 11.9984 19.89 11.9984L24.615 11.9984C24.7725 11.9984 24.84 12.0434 24.8851 12.2234L32.04 36.5009C32.085 36.6808 32.04 36.7934 31.86 36.7934H28.125C27.945 36.7934 27.8324 36.7484 27.7875 36.591L25.9425 29.8185H18.7426Z" fill="#FF7F18"/>
</g>
<defs>
<radialGradient id="paint0_radial" cx="0" cy="0" r="1" gradientUnits="userSpaceOnUse" gradientTransform="translate(18.5529 13.0459) scale(37.6201 36.4231)">
<stop stop-color="#423325" stop-opacity="0.98"/>
<stop offset="1" stop-color="#1C0A00"/>
</radialGradient>
<clipPath id="clip0">
<rect width="54" height="52.6608" fill="white"/>
</clipPath>
</defs>
</svg>
