<svg width="60" height="44" viewBox="0 0 60 44" fill="none" xmlns="http://www.w3.org/2000/svg">
<path d="M0.00035535 35.9194L6.96548 31.564C8.30944 34.0257 9.53181 36.1085 12.464 36.1085C15.2746 36.1085 17.047 34.9727 17.047 30.5542V0.505477H25.6003V30.6791C25.6003 39.8324 20.4072 43.9989 12.8306 43.9989C5.98809 43.9989 2.0163 40.3375 0 35.9186L0.00035535 35.9194ZM30.2462 34.9723L37.2106 30.8062C39.0442 33.8996 41.427 36.1721 45.6424 36.1721C49.1868 36.1721 51.4467 34.3412 51.4467 31.816C51.4467 28.7861 49.1249 27.7127 45.2147 25.9457L43.0768 24.998C36.9056 22.2843 32.8122 18.8753 32.8122 11.6789C32.8122 5.05036 37.6999 0 45.3373 0C50.775 0 54.6853 1.95725 57.4955 7.07043L50.8355 11.4897C49.3688 8.77531 47.781 7.70228 45.337 7.70228C42.8318 7.70228 41.2432 9.34361 41.2432 11.4897C41.2432 14.1409 42.8318 15.2146 46.4975 16.856L48.6357 17.8026C55.9066 21.0225 60 24.3048 60 31.69C60 39.6447 53.9515 44 45.8255 44C37.883 44 32.7507 40.0862 30.2459 34.9727" fill="#FFCC00"/>
</svg>
