<svg width="87" height="22" viewBox="0 0 87 22" fill="none" xmlns="http://www.w3.org/2000/svg">
<path d="M36.779 7.58432L36.7791 7.5835L36.2285 9.53496L36.7789 7.58432H36.779Z" fill="#131B28"/>
<path d="M39.6107 11.821L39.0039 11.8174L39.6107 11.821Z" fill="#131B28"/>
<path d="M39.455 14.7354H39.4557L35.8203 14.7486L39.4552 14.7354H39.455Z" fill="#131B28"/>
<path d="M40.2164 11.8244L39.6094 11.8208L40.2164 11.8244Z" fill="#131B28"/>
<path d="M39.7734 14.4873L40.4067 12.0723L39.7734 14.4878V14.4875V14.4873Z" fill="#131B28"/>
<path d="M53.1582 3.36572L51.9785 8.91131L53.1582 3.36572Z" fill="#131B28"/>
<path d="M50.126 3.36605L49.2305 7.50881L50.126 3.36572V3.36605Z" fill="#131B28"/>
<path d="M52.9558 3.11621H50.4334C50.2934 3.11621 50.1544 3.2285 50.1246 3.36525L49.229 7.50834L48.3335 11.6514C48.3038 11.7882 48.1651 11.9001 48.0251 11.9001H46.4946H46.2397C44.4734 11.9001 44.6777 10.6785 45.0394 9.00459C45.043 8.98775 45.0466 8.9713 45.0502 8.95406L45.0899 8.74311C45.0923 8.72947 45.0951 8.71583 45.0974 8.7034L45.178 8.27388L45.2644 7.8135C45.2907 7.67474 45.3306 7.47181 45.3566 7.34429L45.7637 5.35521L46.1711 3.36612C46.1992 3.22897 46.1074 3.11627 45.9674 3.11627H43.3783C43.2383 3.11627 43.0997 3.22897 43.0711 3.36573L42.5144 6.00694L41.9578 8.64783C41.9573 8.64898 41.9571 8.65064 41.957 8.65184L41.9052 8.89729C41.264 11.8248 41.434 14.6165 44.919 14.7039C44.9759 14.7055 45.0201 14.7059 45.0201 14.7059H50.4904C50.6304 14.7059 50.7689 14.5937 50.7982 14.4565L51.9779 8.9114L53.1575 3.36581C53.1866 3.22865 53.0958 3.11636 52.9558 3.11636L52.9558 3.11621Z" fill="#131B28"/>
<path d="M63.0189 11.9292C63.159 11.9292 63.2506 12.0415 63.2226 12.1787L62.9775 13.3757" fill="#131B28"/>
<path d="M62.7326 14.5734L62.9775 13.3755L62.7324 14.5738C62.7324 14.5735 62.7326 14.5735 62.7326 14.5735L62.7326 14.5734Z" fill="#131B28"/>
<path d="M62.4259 14.8255C62.4262 14.8255 62.4267 14.8252 62.427 14.8252C61.6847 14.8312 59.454 14.8481 57.7773 14.8481C59.8178 14.8481 62.4257 14.8256 62.4257 14.8256L62.4259 14.8255Z" fill="#131B28"/>
<path d="M56.2718 10.387C56.2698 10.2559 56.419 10.0301 56.5592 10.0301L56.2441 10.0249C56.1022 11.4526 56.2718 10.387 56.2718 10.387H56.2718Z" fill="#131B28"/>
<path d="M58.0075 14.8477C57.9915 14.8477 57.975 14.8477 57.959 14.848C57.975 14.8477 57.9915 14.8477 58.0075 14.8477Z" fill="#131B28"/>
<path d="M63.0187 11.9292C63.1589 11.9292 63.2505 12.0415 63.2224 12.1787L62.9774 13.3757L62.9375 13.5711" fill="#131B28"/>
<path d="M58.3933 14.8472C58.3733 14.8472 58.3536 14.8472 58.334 14.8475C58.3536 14.8472 58.3733 14.8472 58.3933 14.8472Z" fill="#131B28"/>
<path d="M58.5454 14.8467C58.4942 14.8467 58.4431 14.847 58.3926 14.847C58.4431 14.847 58.4942 14.8467 58.5454 14.8467Z" fill="#131B28"/>
<path d="M59.1916 14.8447C58.9874 14.8455 58.7837 14.8464 58.583 14.8468C58.7837 14.8465 58.9877 14.8456 59.1916 14.8447Z" fill="#131B28"/>
<path d="M62.4272 14.8252H62.4273C61.8833 14.8296 60.5399 14.8396 59.2002 14.8448C60.5393 14.84 61.883 14.8296 62.4272 14.8252Z" fill="#131B28"/>
<path d="M62.7326 14.5738L62.9378 13.5708L62.7324 14.5746C62.7324 14.5743 62.7326 14.5743 62.7326 14.5738L62.7326 14.5738Z" fill="#131B28"/>
<path d="M21.2497 10.4171L21.6415 8.68018L21.1936 10.6656L20.7637 12.6881L21.1404 10.9152C21.1695 10.778 21.2188 10.5538 21.2497 10.4171L21.2497 10.4171Z" fill="#131B28"/>
<path d="M25.939 3.08691H23.1688C23.0287 3.08691 22.8889 3.1988 22.8576 3.33515L22.595 4.49455L22.3323 5.65436C22.3014 5.79071 22.3906 5.9026 22.5308 5.9026H25.3225C25.4624 5.9026 25.6016 5.79071 25.6317 5.65395L25.8855 4.49455L26.1394 3.33596V3.33563C26.1693 3.19887 26.0792 3.08698 25.9391 3.08698L25.939 3.08691Z" fill="#131B28"/>
<path d="M25.3369 6.94369V6.94336L24.5244 10.7022L25.3369 6.94369Z" fill="#131B28"/>
<path d="M17.2883 19.3978C17.2883 19.3978 18.6847 19.4159 19.5724 19.4159C18.898 19.4159 17.7843 19.4035 17.2871 19.3975C17.2876 19.3975 17.2879 19.3978 17.2884 19.3978L17.2883 19.3978Z" fill="#131B28"/>
<path d="M22.0328 6.94336L21.6406 8.6803L22.0328 6.94336Z" fill="#131B28"/>
<path d="M25.1365 6.69482H22.3445C22.2045 6.69482 22.0646 6.80672 22.0337 6.94347L21.6415 8.68041L21.2497 10.4173C21.2188 10.5541 21.1695 10.7783 21.1404 10.9154L20.7636 12.6883L20.387 14.4613C20.3578 14.598 20.2976 14.819 20.2527 14.9517C20.2527 14.9517 19.7312 16.5037 18.8543 16.4861C18.817 16.4853 18.7807 16.4849 18.7448 16.484C18.3199 16.476 17.986 16.47 17.986 16.47H17.9854C17.8456 16.4679 17.705 16.5771 17.6724 16.713L17.3828 17.9302L17.0937 19.1469C17.0612 19.2829 17.149 19.3952 17.2882 19.3976C17.7855 19.4036 18.8991 19.416 19.5734 19.416C21.7637 19.416 22.9184 18.2025 23.6585 14.7103L24.5248 10.7024L25.3373 6.94353C25.3668 6.80678 25.2763 6.69488 25.1363 6.69488L25.1365 6.69482Z" fill="#131B28"/>
<path d="M64.7977 14.7059C64.6577 14.7059 64.5669 14.5936 64.5964 14.4565L66.6967 4.61865" fill="#131B28"/>
<path d="M67.7168 14.4558L68.5662 10.2568L67.7168 14.4558Z" fill="#131B28"/>
<path d="M64.6271 14.5811C64.61 14.5125 64.62 14.3445 64.6497 14.2073L65.6465 9.5376L64.5964 14.4563C64.5669 14.5935 64.6577 14.7058 64.7977 14.7058H65.0528C64.9126 14.7058 64.6439 14.6497 64.6271 14.5811L64.6271 14.5811Z" fill="#131B28"/>
<path d="M67.5508 14.6497C67.4746 14.6806 67.2974 14.7058 67.1572 14.7058H67.4123C67.5522 14.7058 67.6898 14.5936 67.7175 14.456L67.768 14.2065C67.7401 14.3437 67.6272 14.6188 67.5508 14.6497Z" fill="#131B28"/>
<path d="M68.1426 12.3562L68.5176 10.5029C68.5174 10.5041 68.5173 10.5057 68.5169 10.5065L68.1426 12.3562H68.1426Z" fill="#131B28"/>
<path d="M76.4292 5.27734L76.5449 5.75539C76.5768 5.89214 76.4884 6.00323 76.3486 6.00363" fill="#131B28"/>
<path d="M67.7676 14.2064L68.1415 12.3564L67.7676 14.2064Z" fill="#131B28"/>
<path d="M76.3135 4.78809L76.428 5.27776L76.3135 4.78809Z" fill="#131B28"/>
<path d="M68.5166 10.5032C68.5445 10.366 68.5906 10.1439 68.6197 10.0079L69.0201 8.13184L68.5665 10.2569L68.5166 10.5032V10.5032Z" fill="#131B28"/>
<path d="M66.7305 4.45703C66.7026 4.58937 66.6669 4.7566 66.6433 4.8673L65.6465 9.53735L66.6966 4.61827L66.7305 4.45706V4.45703Z" fill="#131B28"/>
<path d="M76.5443 5.75547L76.4286 5.27742L76.3141 4.78775L76.2562 4.5399C76.0294 3.65882 75.3637 3.1503 73.9182 3.1503L71.6678 3.14791L69.5952 3.14551H69.4174H67.2632C67.1232 3.14551 66.9847 3.2574 66.9558 3.39455H66.9557L66.8526 3.88181L66.7309 4.4573L66.697 4.61851L65.6469 9.53759L64.6501 14.2073C64.6204 14.3445 64.6104 14.5125 64.6274 14.5811C64.6443 14.6497 64.913 14.7058 65.0531 14.7058H67.157C67.2972 14.7058 67.4745 14.6805 67.5507 14.6497C67.627 14.6188 67.7399 14.3437 67.7678 14.2065L68.1418 12.3566L68.5161 10.5069C68.5163 10.5061 68.5165 10.5045 68.5168 10.5033L68.5667 10.2571L69.0203 8.13199L69.4209 6.2551C69.4506 6.11875 69.5886 6.00725 69.7283 6.00686L76.3482 6.00366C76.488 6.00333 76.5764 5.89217 76.5445 5.75542L76.5443 5.75547Z" fill="#131B28"/>
<path d="M85.0663 1.43296C84.9262 1.43395 84.697 1.43482 84.5568 1.43482H82.438C82.2978 1.43482 82.1183 1.52947 82.0393 1.64516L77.354 8.50931C77.2748 8.62521 77.1845 8.60796 77.1535 8.47161L76.8088 6.9593C76.7777 6.82255 76.6373 6.71106 76.4974 6.71106H73.4852C73.3451 6.71106 73.2621 6.82095 73.3004 6.9557L74.6501 11.6839C74.6886 11.8187 74.6914 12.04 74.6567 12.1756L74.0684 14.464C74.0335 14.5999 74.1197 14.711 74.2599 14.711H77.2368C77.3768 14.711 77.52 14.5999 77.5547 14.464L78.1432 12.1756C78.1779 12.04 78.2753 11.8371 78.3597 11.7252L85.9662 1.62966C86.0506 1.51777 86.0049 1.42672 85.8649 1.42774L85.0665 1.43295L85.0663 1.43296Z" fill="#131B28"/>
<path d="M61.1361 7.35466L61.1359 7.35186C61.1183 7.50385 60.9781 7.61534 60.8381 7.61534H57.0193C56.8874 7.61534 56.8202 7.5255 56.8396 7.41482C56.8408 7.41162 56.8413 7.40881 56.8432 7.406C56.8432 7.406 56.8419 7.40633 56.8408 7.40715C56.8417 7.40273 56.8417 7.39874 56.8429 7.39432C56.8429 7.39432 56.8501 7.36745 56.8604 7.32935C57.2251 6.35964 57.968 5.7232 59.3642 5.7232C60.9361 5.7232 61.2429 6.49119 61.1362 7.35461L61.1361 7.35466ZM60.0158 2.94678C55.1139 2.94678 53.9524 5.92211 53.3008 8.92504C52.6491 11.9858 52.7052 14.8476 57.7775 14.8476H57.9576C57.9736 14.8473 57.9901 14.8473 58.0061 14.8473H58.1481H58.2002H58.3333C58.353 14.847 58.3726 14.847 58.3927 14.847C58.4432 14.847 58.4944 14.8466 58.5455 14.8466H58.5814C58.7821 14.8463 58.9858 14.8453 59.19 14.8446H59.2002C60.5399 14.8394 61.8833 14.8293 62.4275 14.8249C62.5667 14.8229 62.7028 14.7106 62.7315 14.5747L62.9368 13.5709L62.9767 13.3756L63.2218 12.1785C63.2498 12.0413 63.1582 11.929 63.018 11.929H58.4579C56.6442 11.929 56.1056 11.447 56.304 10.0301H63.5936L63.593 10.0309C63.5948 10.0309 63.5964 10.0301 63.598 10.0301C63.7139 10.0281 63.821 9.94832 63.8635 9.84204C63.8715 9.82159 63.8783 9.80034 63.8811 9.77828L63.8803 9.7791C64.9627 5.69646 64.6523 2.94699 60.0155 2.94699L60.0158 2.94678Z" fill="#131B28"/>
<path d="M36.8485 7.3392L36.7795 7.58343C36.7795 7.58425 36.7793 7.58425 36.7793 7.58425L36.2289 9.53489L35.6787 11.4852C35.6406 11.62 35.495 11.7302 35.3547 11.7302H32.4412C30.2314 11.7302 29.6933 10.0019 30.2314 7.45246C30.7694 4.84491 31.8243 3.22395 33.9993 3.05985C36.9715 2.83566 37.5662 4.92623 36.8485 7.33928L36.8485 7.3392ZM38.8464 11.5802C38.8464 11.5802 40.22 8.24512 40.532 6.31862C40.9574 3.73982 39.6663 0 34.6792 0C29.7205 0 27.5673 3.57063 26.7457 7.45221C25.9242 11.3619 27.0005 14.7908 31.931 14.7627L35.8207 14.7482L39.456 14.735C39.596 14.7338 39.7392 14.6227 39.7748 14.4875L40.4081 12.072C40.4434 11.9365 40.3578 11.825 40.2178 11.8242L39.6108 11.8206L39.0041 11.8169C38.885 11.8161 38.8168 11.7391 38.8312 11.6369C38.8338 11.6184 38.838 11.5996 38.8461 11.5799L38.8464 11.5802Z" fill="#131B28"/>
<path d="M63.3931 9.34798C63.3931 9.44022 63.3183 9.51522 63.2258 9.51522C63.1336 9.51522 63.0586 9.44022 63.0586 9.34798C63.0586 9.25574 63.1336 9.18115 63.2258 9.18115C63.3183 9.18115 63.3931 9.25575 63.3931 9.34798Z" fill="#131B28"/>
<path d="M0.982058 5.01169C-0.387091 6.97959 -0.21665 9.53982 0.829262 11.6308C0.854128 11.6809 0.880194 11.7302 0.90586 11.7795C0.922306 11.8108 0.937742 11.8429 0.954786 11.8738C0.964416 11.8922 0.975237 11.9103 0.985266 11.9279C1.00311 11.9612 1.02136 11.9929 1.03981 12.0254C1.07229 12.0827 1.10558 12.1397 1.13966 12.1966C1.15851 12.2279 1.17716 12.2592 1.19661 12.2905C1.23431 12.3514 1.27301 12.4116 1.31251 12.4717C1.32896 12.4974 1.34499 12.5231 1.36184 12.5479C1.41638 12.6293 1.47212 12.7103 1.52967 12.7901C1.5311 12.7922 1.53267 12.7946 1.53447 12.7966C1.54351 12.8094 1.55353 12.8218 1.56275 12.8347C1.61248 12.9032 1.66381 12.971 1.71574 13.038C1.7348 13.0624 1.75404 13.0869 1.77329 13.1114C1.81961 13.1695 1.86673 13.2273 1.91466 13.285C1.9325 13.3067 1.95055 13.3283 1.9686 13.3496C2.03296 13.4254 2.09853 13.5008 2.1655 13.5746C2.16673 13.5757 2.16831 13.5774 2.1695 13.5786C2.17232 13.5818 2.17472 13.5838 2.17712 13.587C2.24249 13.6584 2.30946 13.7281 2.37724 13.7979C2.3983 13.8196 2.41975 13.8412 2.44141 13.8625C2.49394 13.9154 2.54728 13.9676 2.60122 14.0193C2.62308 14.0402 2.64474 14.0614 2.66659 14.0815C2.73858 14.1492 2.81137 14.2158 2.88556 14.2808C2.88679 14.2819 2.88775 14.2828 2.88897 14.2836C2.90159 14.2948 2.91463 14.3052 2.92707 14.3161C2.99243 14.3726 3.05901 14.4288 3.12597 14.4841C3.15324 14.5062 3.18092 14.5278 3.20839 14.5499C3.26313 14.5936 3.31847 14.6369 3.37421 14.6794C3.40369 14.7019 3.43317 14.7243 3.46284 14.7468C3.5244 14.7921 3.58636 14.8366 3.64892 14.8803C3.67178 14.8968 3.69384 14.9128 3.7167 14.9285C3.7231 14.9329 3.72894 14.9373 3.73534 14.9417C3.7947 14.9826 3.85545 15.0219 3.91602 15.0612C3.94208 15.0785 3.96795 15.0965 3.99422 15.1133C4.08726 15.1723 4.18171 15.2305 4.27715 15.2866C4.30301 15.3014 4.32928 15.3159 4.35535 15.3307C4.42553 15.3712 4.49611 15.4109 4.5677 15.4498C4.6064 15.4707 4.6461 15.4903 4.6852 15.5104C4.73573 15.5368 4.78586 15.5637 4.83719 15.5894C4.84881 15.595 4.86086 15.6006 4.87228 15.6062C4.89294 15.6162 4.91379 15.6259 4.93444 15.6363C5.01405 15.6744 5.09426 15.7117 5.17527 15.7478C5.19252 15.7554 5.20916 15.763 5.22621 15.7706C5.31905 15.8111 5.41268 15.85 5.50713 15.8873C5.52979 15.8966 5.55265 15.9054 5.57551 15.9142C5.66293 15.9479 5.75157 15.9812 5.8406 16.0125C5.85183 16.0165 5.86266 16.0201 5.87389 16.0241C5.97154 16.0582 6.0702 16.0899 6.16945 16.1207C6.19311 16.1276 6.21697 16.1352 6.24083 16.142C6.34189 16.1725 6.44176 16.209 6.54602 16.2282C13.1675 17.4357 15.0909 12.2491 15.0909 12.2491C13.4755 14.3536 10.6081 14.9087 7.89135 14.2907C7.78848 14.2674 7.68863 14.2354 7.58817 14.2057C7.5627 14.1981 7.53763 14.1905 7.51257 14.1828C7.41452 14.1528 7.31726 14.1211 7.22062 14.0878C7.20738 14.083 7.19395 14.0782 7.18052 14.0733C7.09389 14.0429 7.00827 14.0108 6.92305 13.9779C6.89898 13.9683 6.87492 13.959 6.85086 13.9494C6.75742 13.9125 6.66458 13.874 6.57294 13.8339C6.55409 13.8259 6.53604 13.8175 6.5174 13.8095C6.43859 13.7738 6.36059 13.7377 6.28299 13.7004C6.26053 13.6896 6.23807 13.6791 6.21521 13.6679C6.15427 13.6382 6.09399 13.6065 6.03387 13.5756C5.99362 13.5544 5.95272 13.5343 5.9128 13.5122C5.83938 13.4729 5.76726 13.432 5.69548 13.3903C5.67117 13.3767 5.64653 13.3635 5.62205 13.3494C5.52662 13.2932 5.43233 13.2351 5.33902 13.1761C5.31323 13.1597 5.2881 13.1421 5.26264 13.1252C5.19496 13.0815 5.12762 13.037 5.06125 12.9913C5.03924 12.9763 5.01805 12.9604 4.99637 12.9456C4.9323 12.9003 4.8689 12.8545 4.80598 12.808C4.7774 12.7868 4.74931 12.7654 4.72155 12.7442C4.6639 12.7 4.60657 12.6555 4.54973 12.6099C4.52406 12.5894 4.4984 12.569 4.47313 12.5485C4.40095 12.4892 4.32956 12.4294 4.25918 12.368C4.25177 12.3616 4.24374 12.3552 4.23572 12.3484C4.15952 12.2814 4.08473 12.2128 4.01074 12.1439C3.98928 12.1234 3.96843 12.1034 3.94737 12.0829C3.89263 12.0308 3.8387 11.9782 3.78576 11.9245C3.7645 11.9032 3.74325 11.8824 3.72239 11.8611C3.65502 11.7922 3.58885 11.7224 3.52408 11.6514C3.52087 11.6478 3.51746 11.6446 3.51426 11.641C3.44568 11.566 3.37871 11.4894 3.31313 11.412C3.29529 11.3907 3.27804 11.3703 3.2604 11.3494C3.21147 11.2905 3.16295 11.2307 3.11562 11.1706C3.09788 11.1489 3.08014 11.1267 3.06256 11.1044C3.00556 11.0304 2.94988 10.9567 2.89534 10.8818C1.38701 8.82436 0.845151 5.98668 2.05069 3.65625" fill="#0868AC"/>
<path d="M5.2319 3.35352C4.24174 4.77841 4.29548 6.6858 5.06788 8.19277C5.19741 8.44543 5.34299 8.69046 5.50581 8.92387C5.65419 9.13641 5.81862 9.38947 6.01552 9.56031C6.08691 9.63891 6.1615 9.71551 6.23769 9.79091C6.25693 9.81056 6.27659 9.82941 6.29624 9.84866C6.37023 9.92044 6.44543 9.99102 6.52322 10.0596C6.52643 10.062 6.52924 10.0652 6.53244 10.0676C6.53326 10.0685 6.53409 10.0688 6.53464 10.0697C6.62066 10.1451 6.70948 10.2177 6.79973 10.2891C6.81979 10.3043 6.83963 10.3203 6.85989 10.336C6.95032 10.4054 7.04256 10.4735 7.1372 10.5385C7.14001 10.5405 7.14241 10.5425 7.14523 10.5445C7.18694 10.5734 7.22945 10.6003 7.27175 10.6279C7.292 10.6412 7.31126 10.6552 7.33171 10.6676C7.39929 10.7109 7.46766 10.753 7.53724 10.7936C7.54707 10.7996 7.55668 10.8048 7.56631 10.8104C7.62627 10.8449 7.68703 10.879 7.74799 10.9118C7.76924 10.9239 7.7909 10.9343 7.81256 10.9455C7.85467 10.9676 7.89678 10.9901 7.93968 11.0113C7.94609 11.0145 7.95272 11.0173 7.95892 11.0201C8.04615 11.0631 8.13418 11.1044 8.22401 11.1437C8.24325 11.1521 8.26312 11.1597 8.28256 11.1677C8.35435 11.1982 8.42694 11.2279 8.49992 11.256C8.5308 11.2676 8.56208 11.2788 8.59296 11.29C8.65913 11.3145 8.7255 11.337 8.79248 11.3594C8.82275 11.369 8.85243 11.3791 8.88271 11.3883C8.97795 11.418 9.07199 11.4553 9.17126 11.4717C14.2837 12.3187 15.4639 8.38254 15.4639 8.38254C14.4 9.91491 12.3396 10.646 10.1409 10.0753C10.0433 10.0496 9.94702 10.0216 9.85136 9.99148C9.82209 9.98266 9.79341 9.97304 9.76434 9.96341C9.69636 9.94135 9.62879 9.91809 9.56182 9.89362C9.53114 9.88239 9.50046 9.87117 9.47038 9.85954C9.39699 9.83146 9.3244 9.80219 9.25242 9.77171C9.23277 9.76328 9.21291 9.75568 9.19366 9.74684C9.10343 9.70754 9.0146 9.66624 8.92698 9.62292C8.88186 9.60087 8.83755 9.57761 8.79323 9.55475C8.76757 9.54153 8.7417 9.52828 8.71603 9.51505C8.65908 9.48417 8.60254 9.45208 8.54679 9.4196C8.53357 9.41198 8.51972 9.40475 8.50628 9.39674C8.4371 9.35623 8.36893 9.31453 8.30135 9.27162C8.28049 9.25838 8.26044 9.24394 8.23959 9.23031C8.19507 9.20143 8.15056 9.17216 8.10684 9.14248C8.0126 9.07751 7.92096 9.00934 7.83053 8.94035C7.80968 8.92391 7.78883 8.90787 7.76837 8.89143C6.80595 8.13154 6.0431 7.09322 5.6804 5.91577C5.30029 4.69462 5.38226 3.32383 6.0408 2.21143" fill="#0868AC"/>
<path d="M8.80655 2.115C8.22283 2.97402 8.16549 4.04084 8.57053 4.98964C8.99764 5.99665 9.87291 6.7867 10.8944 7.16122C10.9365 7.17687 10.9786 7.19089 11.0213 7.20533C11.04 7.21095 11.0584 7.21737 11.0773 7.22297C11.1374 7.24182 11.1972 7.26388 11.2593 7.27551C14.0822 7.82092 14.8479 5.82695 15.0517 5.53348C14.381 6.49917 13.2538 6.73097 11.8709 6.39531C11.7617 6.3687 11.6416 6.32927 11.5363 6.29199C11.4013 6.24386 11.2682 6.18899 11.1389 6.1269C10.8934 6.00896 10.6593 5.86572 10.4423 5.70178C9.20471 4.76284 8.43595 2.97153 9.24348 1.5127" fill="#0868AC"/>
<path d="M40.5997 18.8462L39.786 20.6995H38.8877L38.9612 19.0156L38.2999 20.6995H37.4301L37.4072 18.8462L37.5033 18.3887H38.1193L38.0006 20.2191L38.6843 18.3887H39.5432L39.481 20.2419L40.1592 18.3887H40.6957L40.5997 18.8462H40.5997Z" fill="#0868AC"/>
<path d="M42.0177 19.3945C42.0969 19.0328 42.0742 18.965 41.8877 18.965H41.6052L41.4243 19.8128L41.1474 20.6995H40.6221L41.0514 18.6883L41.1137 18.3943H41.594L41.6561 18.5298C41.6561 18.5298 41.9331 18.3662 42.204 18.3662C42.7805 18.3662 42.7353 18.8009 42.6108 19.3945H42.0177L42.0177 19.3945Z" fill="#0868AC"/>
<path d="M43.7243 18.1005C43.4929 18.1005 43.3459 18.0328 43.4023 17.7504C43.4645 17.4677 43.6453 17.3999 43.8711 17.3999C44.0975 17.3999 44.2499 17.4677 44.1877 17.7504C44.1312 18.0271 43.9505 18.1005 43.7243 18.1005H43.7243ZM43.4759 20.6997H42.9557L43.0576 19.7958L43.2385 18.9596L42.877 18.8802L42.9786 18.3889H43.9672L43.4759 20.6996L43.4759 20.6997Z" fill="#0868AC"/>
<path d="M45.7303 18.879L45.0806 18.9584L44.8939 19.8399C44.8429 20.0829 44.843 20.1507 45.0579 20.1507H45.4928L45.4024 20.6139C45.4024 20.6139 45.0072 20.7326 44.8373 20.7326C44.1706 20.7326 44.1762 20.3652 44.2951 19.817L44.476 18.9528L44.1143 18.8738L44.2215 18.3821H44.6003L44.8151 17.7998H45.3292L45.2047 18.3821H45.8375L45.7302 18.879L45.7303 18.879Z" fill="#0868AC"/>
<path d="M47.0793 18.9084C46.7744 18.9084 46.616 19.0668 46.554 19.3492L47.424 19.2758C47.4635 19.0837 47.424 18.9084 47.0793 18.9084V18.9084ZM46.4694 19.767C46.4295 20.0498 46.5369 20.1456 46.8985 20.1456H47.808L47.7178 20.5751C47.7178 20.5751 47.1698 20.7275 46.7629 20.7275C45.7515 20.7275 45.7401 20.1572 45.8702 19.5469C46.0001 18.9477 46.2317 18.355 47.2091 18.355C48.1529 18.355 48.1982 18.9253 47.9664 19.767H46.4694L46.4694 19.767Z" fill="#0868AC"/>
<path d="M50.04 20.6989H49.5205L49.6222 19.795L49.9895 18.0773L49.6276 17.9927L49.7351 17.501H50.724L50.04 20.6989V20.6989Z" fill="#0868AC"/>
<path d="M51.9174 18.9084C51.612 18.9084 51.454 19.0668 51.3916 19.3492L52.2619 19.2758C52.3012 19.0837 52.2619 18.9084 51.9174 18.9084L51.9174 18.9084ZM51.307 19.767C51.2675 20.0498 51.375 20.1456 51.7363 20.1456H52.6461L52.5556 20.5751C52.5556 20.5751 52.0074 20.7275 51.6006 20.7275C50.5892 20.7275 50.5781 20.1572 50.708 19.5469C50.8382 18.9477 51.0698 18.355 52.0471 18.355C52.9908 18.355 53.0359 18.9253 52.8045 19.767H51.307L51.307 19.767Z" fill="#0868AC"/>
<path d="M55.1876 18.9364C55.1876 18.9364 54.5265 18.942 54.3459 18.942C53.9615 18.942 53.922 19.0603 53.8939 19.1846L53.871 19.2977L55.0916 19.3884C55.0916 19.3884 55.0972 19.7782 55.0463 19.9983C54.9729 20.3657 54.5943 20.7383 53.9107 20.7383C53.5715 20.7383 53.0234 20.6087 53.0234 20.6087L53.1195 20.1624H53.9615C54.3344 20.1624 54.3854 20.0605 54.4082 19.959L54.4363 19.8123L53.2384 19.7216C53.2384 19.7216 53.1933 19.4221 53.2552 19.1229C53.3458 18.7158 53.7184 18.3657 54.4022 18.3657C54.7413 18.3657 55.2893 18.4896 55.2893 18.4896L55.1876 18.9364L55.1876 18.9364Z" fill="#0868AC"/>
<path d="M57.4599 18.9364C57.4599 18.9364 56.799 18.942 56.6181 18.942C56.2339 18.942 56.1945 19.0603 56.1662 19.1846L56.1433 19.2977L57.3641 19.3884C57.3641 19.3884 57.3697 19.7782 57.3187 19.9983C57.2453 20.3657 56.8668 20.7383 56.183 20.7383C55.8441 20.7383 55.2959 20.6087 55.2959 20.6087L55.3919 20.1624H56.2339C56.6067 20.1624 56.6576 20.0605 56.6805 19.959L56.7085 19.8123L55.5106 19.7216C55.5106 19.7216 55.4655 19.4221 55.5275 19.1229C55.6181 18.7158 55.9907 18.3657 56.6746 18.3657C57.0135 18.3657 57.5615 18.4896 57.5615 18.4896L57.4599 18.9364L57.4599 18.9364Z" fill="#0868AC"/>
<path d="M58.1713 21.0668H57.7195L57.7363 20.7275C57.5723 20.7167 57.4877 20.598 57.5272 20.3999C57.5894 20.1176 57.7646 20.0498 57.9962 20.0498C58.2222 20.0498 58.3744 20.1176 58.3126 20.3999L58.1713 21.0668V21.0668Z" fill="#0868AC"/>
<path d="M61.1939 18.9592C60.855 18.9592 60.7365 19.1626 60.6573 19.5355C60.5781 19.9085 60.6007 20.1287 60.9396 20.1287H61.4086L61.6687 18.9592H61.1939ZM61.9681 20.3998L61.9057 20.6993L61.4315 20.6937L61.3635 20.547C61.3635 20.547 60.9452 20.7274 60.6631 20.7274C59.9396 20.7274 59.9057 20.1343 60.0357 19.5355C60.1656 18.9251 60.4481 18.3489 61.1658 18.3489C61.4258 18.3489 61.776 18.4788 61.776 18.4788L62.0641 17.5015H62.5841L61.9681 20.3998L61.9681 20.3998Z" fill="#0868AC"/>
<path d="M63.8384 18.9363C63.3978 18.9363 63.2563 19.1846 63.1773 19.5463C63.1039 19.9136 63.138 20.1623 63.5727 20.1623C64.0249 20.1623 64.1606 19.9193 64.2394 19.5463C64.3188 19.1958 64.2959 18.9363 63.8384 18.9363H63.8384ZM63.4544 20.733C62.522 20.733 62.4484 20.1511 62.5727 19.5464C62.7028 18.942 63.0305 18.3657 63.9629 18.3657C64.8893 18.3657 64.9743 18.942 64.844 19.5464C64.7143 20.1624 64.3864 20.733 63.4544 20.733Z" fill="#0868AC"/>
<path d="M68.7431 20.6991L68.8449 19.8064L68.8957 19.5521C68.9693 19.2132 69.0144 18.9646 68.6583 18.9646H68.3815C68.393 19.1398 68.3589 19.3375 68.3138 19.5465L68.0709 20.6991H67.5454L67.647 19.8064L67.6978 19.5521C67.7714 19.2132 67.8163 18.9646 67.4608 18.9646H67.2346L66.8616 20.6991H66.2568L66.7485 18.3883H67.2231L67.2965 18.5295C67.2965 18.5295 67.6188 18.3599 67.8786 18.3599C68.0763 18.3599 68.2233 18.4505 68.2743 18.5632C68.3871 18.501 68.7094 18.3599 68.9412 18.3599C69.6639 18.3599 69.6416 18.9474 69.5115 19.5465L69.2686 20.6991H68.7431L68.7431 20.6991Z" fill="#0868AC"/>
<path d="M71.1451 18.9363C70.7041 18.9363 70.563 19.1846 70.484 19.5463C70.4106 19.9136 70.4447 20.1623 70.8794 20.1623C71.3313 20.1623 71.4673 19.9193 71.5463 19.5463C71.6253 19.1958 71.6026 18.9363 71.1451 18.9363ZM70.7609 20.733C69.8283 20.733 69.7551 20.1511 69.8794 19.5464C70.0093 18.942 70.337 18.3657 71.2694 18.3657C72.1962 18.3657 72.2808 18.942 72.1507 19.5464C72.0209 20.1624 71.6931 20.733 70.7609 20.733Z" fill="#0868AC"/>
<path d="M73.7198 19.3945C73.7988 19.0328 73.7764 18.965 73.5901 18.965H73.3074L73.1265 19.8128L72.8496 20.6995H72.3242L72.7535 18.6883L72.8159 18.3943H73.2961L73.3581 18.5298C73.3581 18.5298 73.635 18.3662 73.9065 18.3662C74.4826 18.3662 74.4373 18.8009 74.313 19.3945H73.7198L73.7198 19.3945Z" fill="#0868AC"/>
<path d="M75.7443 18.9084C75.4395 18.9084 75.2811 19.0668 75.2191 19.3492L76.0888 19.2758C76.1287 19.0837 76.0888 18.9084 75.7443 18.9084V18.9084ZM75.1341 19.767C75.0948 20.0498 75.2019 20.1456 75.5634 20.1456H76.4731L76.3829 20.5751C76.3829 20.5751 75.8347 20.7275 75.428 20.7275C74.4166 20.7275 74.4054 20.1572 74.5349 19.5469C74.6651 18.9477 74.8969 18.355 75.8742 18.355C76.8176 18.355 76.8632 18.9253 76.6314 19.767H75.1341V19.767Z" fill="#0868AC"/>
<path d="M77.1389 20.7336C76.9014 20.7336 76.7549 20.6658 76.817 20.3891C76.8732 20.106 77.0484 20.0386 77.286 20.0386C77.5062 20.0386 77.6586 20.1059 77.6025 20.3891C77.5399 20.6602 77.3594 20.7336 77.1389 20.7336Z" fill="#0868AC"/>
</svg>
