<svg width="69" height="28" viewBox="0 0 69 28" fill="none" xmlns="http://www.w3.org/2000/svg">
<path d="M0.912109 0.916992H68.9997V23.6919H34.9559V27.4878H19.8253V23.6919H0.912109V0.916992ZM4.69475 19.8961H12.26V8.50864H16.0427V19.8961H19.8253V4.71282H4.69475V19.8961ZM23.608 4.71282V23.6919H31.1733V19.8961H38.7385V4.71282H23.608ZM31.1733 8.50864H34.9559V16.1003H31.1733V8.50864ZM42.5212 4.71282V19.8961H50.0865V8.50864H53.8691V19.8961H57.6518V8.50864H61.4344V19.8961H65.217V4.71282H42.5212Z" fill="#F12F2D"/>
<path d="M4.69336 19.8957H12.2586V8.50823H16.0413V19.8957H19.8239V4.7124H4.69336V19.8957Z" fill="#181818"/>
<path d="M23.6074 4.7124V23.6915H31.1727V19.8957H38.738V4.7124H23.6074ZM34.9554 16.0999H31.1727V8.50823H34.9554V16.0999Z" fill="#181818"/>
<path d="M42.5205 4.71338V19.8967H50.0858V8.5092H53.8684V19.8967H57.6511V8.5092H61.4337V19.8967H65.2164V4.71338H42.5205Z" fill="#181818"/>
</svg>
