<svg width="54" height="53" viewBox="0 0 54 53" fill="none" xmlns="http://www.w3.org/2000/svg">
<g clip-path="url(#clip0)">
<path d="M2.25 2.25537H51.7501V50.4055H2.25V2.25537Z" fill="url(#paint0_radial)"/>
<path d="M2.24997 2.25681H51.7501V50.407H2.24997V2.25681ZM0 52.657H54.0001V0.00683594H0V52.657ZM36.4051 21.6069C34.6275 21.6069 34.0201 22.5068 34.0201 23.2493C34.0201 24.0593 34.4251 24.6218 36.8101 25.8594C40.3426 27.5694 41.4451 29.2119 41.4451 31.6194C41.4451 35.2194 38.7001 37.1544 34.9876 37.1544C33.0301 37.1544 31.3425 36.7494 30.3751 36.1869C30.2176 36.1194 30.1951 36.007 30.1951 35.8269V32.5194C30.1951 32.2944 30.3076 32.2268 30.4651 32.3394C31.8826 33.262 33.5026 33.6669 34.9876 33.6669C36.7651 33.6669 37.5076 32.9244 37.5076 31.9119C37.5076 31.1019 36.9901 30.3819 34.7175 29.2119C31.5225 27.6819 30.1951 26.1294 30.1951 23.5419C30.1951 20.6393 32.4676 18.2319 36.4051 18.2319C38.3401 18.2319 39.6901 18.5244 40.4326 18.8619C40.6126 18.9744 40.6576 19.1543 40.6576 19.3118V22.3943C40.6576 22.5742 40.5451 22.6868 40.32 22.6192C39.33 21.9894 37.8676 21.6069 36.4051 21.6069ZM17.055 24.2844C17.5725 24.3294 17.9776 24.3294 18.8775 24.3294C21.5101 24.3294 23.9851 23.4069 23.9851 19.8294C23.9851 16.9719 22.2075 15.5319 19.2151 15.5319C18.3151 15.5319 17.46 15.5769 17.055 15.5994V24.2844ZM13.0501 12.3368C13.0501 12.1794 13.3651 12.0668 13.545 12.0668C14.9851 11.9993 17.1226 11.9543 19.3501 11.9543C25.5826 11.9543 28.0125 15.3743 28.0125 19.7393C28.0125 25.4543 23.8725 27.9069 18.7875 27.9069C17.9326 27.9069 17.6401 27.8619 17.0325 27.8619V36.5019C17.0325 36.6819 16.965 36.7719 16.7625 36.7719H13.32C13.1401 36.7719 13.05 36.7044 13.05 36.5019V12.3368H13.0501Z" fill="#31C5F0"/>
</g>
<defs>
<radialGradient id="paint0_radial" cx="0" cy="0" r="1" gradientUnits="userSpaceOnUse" gradientTransform="translate(18.5529 13.0459) scale(37.6201 36.4231)">
<stop stop-color="#34364E" stop-opacity="0.98"/>
<stop offset="1" stop-color="#0C0824"/>
</radialGradient>
<clipPath id="clip0">
<rect width="54" height="52.6608" fill="white"/>
</clipPath>
</defs>
</svg>
