<svg width="73" height="65" viewBox="0 0 73 65" fill="none" xmlns="http://www.w3.org/2000/svg">
<path d="M59.6262 21.064C58.8563 20.8029 58.0863 20.5562 57.3164 20.3241C57.4447 19.7873 57.5588 19.2505 57.6729 18.7137C59.4266 10.0668 58.2717 3.11744 54.3793 0.825151C50.6295 -1.36558 44.5129 0.912199 38.325 6.39628C37.7119 6.93308 37.1131 7.4989 36.5428 8.06472C36.1578 7.68751 35.7586 7.3103 35.3594 6.94759C28.8721 1.0863 22.3705 -1.38009 18.4781 0.926708C14.7426 3.13195 13.6305 9.67513 15.1988 17.8577C15.3557 18.6702 15.5268 19.4681 15.7264 20.2806C14.8139 20.5417 13.9156 20.8319 13.0744 21.1366C5.46074 23.8206 0 28.057 0 32.4384C0 36.965 5.81719 41.506 13.7303 44.2626C14.3719 44.4802 15.0135 44.6978 15.6693 44.8864C15.4555 45.7569 15.2701 46.6129 15.099 47.4979C13.602 55.5499 14.7711 61.9335 18.5066 64.1242C22.3563 66.3875 28.8293 64.0662 35.1312 58.4515C35.6303 58.0018 36.1293 57.5375 36.6283 57.0442C37.2557 57.6681 37.9115 58.2629 38.5674 58.8433C44.6697 64.1823 50.7008 66.344 54.4221 64.1532C58.2717 61.89 59.5264 55.0276 57.901 46.6709C57.7727 46.0326 57.6301 45.3797 57.4732 44.7123C57.9295 44.5817 58.3715 44.4367 58.8135 44.2916C67.0402 41.5205 73 37.0375 73 32.4384C73 28.0424 67.3824 23.777 59.6262 21.064ZM40.3354 8.7466C45.6393 4.04596 50.5867 2.20342 52.8395 3.52367C55.249 4.93096 56.1758 10.6182 54.6645 18.0899C54.5646 18.5831 54.4648 19.0619 54.3365 19.5407C51.1713 18.8153 47.9633 18.293 44.741 18.0028C42.8875 15.3043 40.8629 12.7218 38.6672 10.299C39.2232 9.76217 39.765 9.25439 40.3354 8.7466ZM23.8391 39.9681C24.5662 41.2304 25.3076 42.4926 26.0918 43.7258C23.8676 43.4791 21.6576 43.1164 19.4762 42.6376C20.1035 40.5485 20.8877 38.3868 21.8002 36.1815C22.4561 37.4582 23.1262 38.7204 23.8391 39.9681ZM19.5189 22.5148C21.5721 22.0506 23.7535 21.6734 26.0205 21.3832C25.2648 22.5874 24.5234 23.8206 23.8248 25.0683C23.1262 26.3015 22.4418 27.5637 21.8002 28.8404C20.902 26.6787 20.1463 24.5605 19.5189 22.5148ZM23.4256 32.511C24.3666 30.5088 25.3932 28.5502 26.4768 26.6206C27.5604 24.6911 28.7295 22.8195 29.9557 20.977C32.0943 20.8174 34.2758 20.7303 36.5 20.7303C38.7242 20.7303 40.9199 20.8174 43.0443 20.977C44.2562 22.805 45.4111 24.6766 46.509 26.5916C47.6068 28.5067 48.6334 30.4653 49.6029 32.4529C48.6477 34.455 47.6211 36.4282 46.5232 38.3722C45.4396 40.3018 44.2848 42.1734 43.0729 44.0304C40.9484 44.19 38.7385 44.2626 36.5 44.2626C34.2615 44.2626 32.0943 44.19 29.9984 44.0594C28.758 42.2169 27.5889 40.3309 26.491 38.4013C25.3932 36.4717 24.3809 34.5131 23.4256 32.511ZM49.1752 39.9391C49.9023 38.6624 50.5867 37.3712 51.2568 36.0655C52.1693 38.1691 52.9678 40.3018 53.6664 42.4926C51.4564 43.0004 49.218 43.3921 46.9652 43.6532C47.7352 42.4345 48.4623 41.1868 49.1752 39.9391ZM51.2283 28.8404C50.5582 27.5637 49.8738 26.287 49.1609 25.0393C48.4623 23.8061 47.7352 22.5874 46.9795 21.3832C49.275 21.6734 51.4707 22.0651 53.5238 22.5439C52.868 24.6911 52.098 26.7802 51.2283 28.8404ZM36.5285 12.5187C38.0256 14.1727 39.4371 15.9136 40.7488 17.7126C37.9258 17.5821 35.0885 17.5821 32.2654 17.7126C33.6627 15.8411 35.1027 14.1001 36.5285 12.5187ZM19.9895 3.62522C22.3848 2.20343 27.7029 4.23457 33.3063 9.2834C33.6627 9.60258 34.0191 9.95078 34.3898 10.299C32.1799 12.7218 30.141 15.3043 28.2732 18.0028C25.051 18.293 21.8572 18.8008 18.692 19.5117C18.5066 18.7717 18.3498 18.0173 18.193 17.2629C16.8527 10.2409 17.7367 4.94547 19.9895 3.62522ZM16.4963 41.8687C15.8975 41.6946 15.3129 41.506 14.7283 41.3029C11.6914 40.3309 8.24102 38.793 5.7459 36.7764C4.30586 35.7608 3.33633 34.1939 3.06543 32.4384C3.06543 29.7834 7.5709 26.3885 14.0725 24.0817C14.8852 23.7916 15.7121 23.5304 16.5391 23.2838C17.5086 26.432 18.6777 29.5223 20.0322 32.511C18.6635 35.5432 17.4801 38.6769 16.4963 41.8687ZM33.1209 56.0867C30.7684 58.2774 28.0451 60.0184 25.0795 61.2081C23.4969 61.977 21.6719 62.0496 20.0465 61.3967C17.7795 60.0619 16.8385 54.9406 18.1217 48.0492C18.2785 47.2367 18.4496 46.4243 18.6492 45.6263C21.843 46.3227 25.0652 46.8015 28.3303 47.0481C30.2123 49.7612 32.2797 52.3581 34.4896 54.7955C34.0334 55.2452 33.5771 55.6805 33.1209 56.0867ZM36.6141 52.5612C35.1598 50.9653 33.7055 49.1953 32.2939 47.2948C33.6627 47.3528 35.0742 47.3818 36.5 47.3818C37.9686 47.3818 39.4086 47.3528 40.8344 47.2803C39.5227 49.1228 38.1111 50.8783 36.6141 52.5612ZM55.249 56.9137C55.1207 58.6837 54.2652 60.3376 52.8965 61.4547C50.6295 62.7895 45.7961 61.0485 40.5777 56.4929C39.9789 55.9706 39.3801 55.4048 38.767 54.8245C40.9484 52.3726 42.9588 49.7757 44.7838 47.0481C48.0488 46.7725 51.2996 46.2647 54.5076 45.5248C54.6502 46.1196 54.7785 46.7144 54.8926 47.2948C55.5912 50.4285 55.7053 53.6929 55.249 56.9137ZM57.8439 41.3174C57.4447 41.448 57.0455 41.5786 56.632 41.6946C55.634 38.5318 54.4078 35.4416 52.9963 32.4384C54.365 29.4788 55.5199 26.432 56.4895 23.3128C57.2309 23.5304 57.9438 23.7625 58.6281 23.9947C65.2723 26.316 69.9346 29.7689 69.9346 32.4094C69.9346 35.253 64.9586 38.9236 57.8439 41.3174ZM36.5 39.1412C40.1072 39.1412 43.0301 36.167 43.0301 32.4964C43.0301 28.8259 40.1072 25.8517 36.5 25.8517C32.8928 25.8517 29.9699 28.8259 29.9699 32.4964C29.9699 36.167 32.8928 39.1412 36.5 39.1412Z" fill="#0089FF"/>
</svg>
