<svg width="69" height="65" viewBox="0 0 69 65" fill="none" xmlns="http://www.w3.org/2000/svg">
<path d="M47.4155 45.2438C49.9095 44.9858 51.8015 42.8358 51.7155 40.2558C51.6295 37.6758 49.4795 35.6118 46.8995 35.6118H46.7275C44.0615 35.6978 41.9975 37.9338 42.0835 40.5998C42.1695 41.8898 42.6855 43.0078 43.4595 43.7818C40.5355 49.5438 36.0635 53.7578 29.3555 57.2838C24.7975 59.6918 20.0675 60.5518 15.3375 59.9498C11.4675 59.4338 8.45754 57.7138 6.56554 54.8758C3.81354 50.6618 3.55554 46.1038 5.87754 41.5458C7.51154 38.2778 10.0915 35.8698 11.7255 34.6658C11.3815 33.5478 10.8655 31.6558 10.6075 30.2798C-1.86246 39.3098 -0.572457 51.5218 3.21154 57.2838C6.04954 61.5838 11.8115 64.2498 18.1755 64.2498C19.8955 64.2498 21.6155 64.0778 23.3355 63.6478C34.3435 61.4978 42.6855 54.9618 47.4155 45.2438V45.2438Z" fill="#764ABC"/>
<path d="M62.5514 34.5798C56.0154 26.9258 46.3834 22.7118 35.3754 22.7118H33.9994C33.2254 21.1638 31.5914 20.1318 29.7854 20.1318H29.6134C26.9474 20.2178 24.8834 22.4538 24.9694 25.1198C25.0554 27.6998 27.2054 29.7638 29.7854 29.7638H29.9574C31.8494 29.6778 33.4834 28.4738 34.1714 26.8398H35.7194C42.2554 26.8398 48.4474 28.7318 54.0374 32.4298C58.3374 35.2678 61.4334 38.9658 63.1534 43.4378C64.6154 47.0498 64.5294 50.5758 62.9814 53.5858C60.5734 58.1438 56.5314 60.6378 51.1994 60.6378C47.7594 60.6378 44.4914 59.6058 42.7714 58.8318C41.8254 59.6918 40.1054 61.0678 38.9014 61.9278C42.5994 63.6478 46.3834 64.5938 49.9954 64.5938C58.2514 64.5938 64.3574 60.0358 66.6794 55.4778C69.1734 50.4898 69.0014 41.8898 62.5514 34.5798Z" fill="#764ABC"/>
<path d="M18.8633 46.706C18.9493 49.286 21.0993 51.35 23.6793 51.35H23.8513C26.5173 51.264 28.5813 49.028 28.4953 46.362C28.4093 43.782 26.2593 41.718 23.6793 41.718H23.5073C23.3353 41.718 23.0773 41.718 22.9053 41.804C19.3793 35.956 17.9173 29.592 18.4333 22.712C18.7773 17.552 20.4973 13.08 23.5073 9.38199C26.0013 6.19999 30.8173 4.65199 34.0853 4.56599C43.2013 4.39399 47.0713 15.746 47.3293 20.304C48.4473 20.562 50.3393 21.164 51.6293 21.594C50.5973 7.66199 41.9973 0.437988 33.7413 0.437988C26.0013 0.437988 18.8633 6.02799 16.0253 14.284C12.0693 25.292 14.6493 35.87 19.4653 44.212C19.0353 44.814 18.7773 45.76 18.8633 46.706V46.706Z" fill="#764ABC"/>
</svg>
