<svg width="73" height="62" viewBox="0 0 73 62" fill="none" xmlns="http://www.w3.org/2000/svg">
<path d="M62.8587 35.6414C60.312 35.6565 58.0986 36.3511 56.2452 37.3779C55.5652 35.8528 54.8851 34.4937 54.7651 33.4971C54.6318 32.3344 54.4718 31.6246 54.6318 30.2354C54.7918 28.8461 55.5118 26.8679 55.4985 26.7169C55.4852 26.5659 55.3385 25.8562 53.8718 25.8411C52.4051 25.826 51.1384 26.1582 50.9917 26.5961C50.845 27.034 50.565 28.0307 50.3783 29.0575C50.125 30.5676 47.4449 35.9585 45.9115 38.7823C45.4182 37.68 44.9915 36.7135 44.8982 35.9434C44.7648 34.7806 44.6048 34.0709 44.7648 32.6817C44.9248 31.2924 45.6449 29.3142 45.6315 29.1632C45.6182 29.0122 45.4715 28.3025 44.0048 28.2874C42.5381 28.2723 41.2714 28.6045 41.1247 29.0424C40.9781 29.4803 40.8181 30.5072 40.5114 31.5038C40.2047 32.5005 36.6446 41.5004 35.7112 43.8259C35.2312 45.0188 34.8179 45.9702 34.5245 46.6195C34.5245 46.6195 34.5112 46.6648 34.4712 46.7403C34.2179 47.299 34.0712 47.601 34.0712 47.601C34.0712 47.601 34.0712 47.601 34.0712 47.6161C33.8712 48.0239 33.6578 48.4014 33.5512 48.4014C33.4712 48.4014 33.3245 47.3141 33.5778 45.8343C34.1112 42.7085 35.3779 37.8461 35.3646 37.68C35.3646 37.5894 35.6046 36.7437 34.5379 36.3058C33.4978 35.8679 33.1245 36.5927 33.0312 36.5927C32.9378 36.5927 32.8711 36.8494 32.8711 36.8494C32.8711 36.8494 34.0312 31.383 30.6577 31.383C28.551 31.383 25.6443 33.9954 24.2042 36.3511C23.2975 36.9098 21.3641 38.1028 19.2974 39.3863C18.5107 39.8846 17.6974 40.383 16.9373 40.8511C16.884 40.7907 16.8307 40.7152 16.7773 40.6548C12.6972 35.7169 5.15032 32.2286 5.47033 25.5995C5.59033 23.1834 6.32368 16.8411 19.9641 9.13984C31.1911 2.8731 40.1247 4.60966 41.6714 8.46031C43.8848 13.9569 36.8846 24.1649 25.2843 25.6448C20.8575 26.2035 18.5374 24.2706 17.9507 23.5458C17.3373 22.7908 17.244 22.7455 17.0173 22.8965C16.644 23.123 16.884 23.8025 17.0173 24.1951C17.364 25.222 18.7907 27.034 21.2041 27.925C23.3375 28.7102 28.5244 29.1481 34.8045 26.3998C41.8314 23.3193 47.3249 14.7573 45.7115 7.58448C44.0981 0.305995 33.4312 -2.095 23.3375 1.96706C17.3373 4.38315 10.8305 8.1885 6.15035 13.1415C0.59018 19.0307 -0.289846 24.1498 0.0701647 26.2941C1.36354 33.9048 10.6305 38.8578 14.3373 42.5272C14.1506 42.6481 13.9772 42.7538 13.8306 42.8444C11.9772 43.8863 4.91031 48.0692 3.15026 52.4936C1.1502 57.507 3.47027 61.101 5.00365 61.5842C9.76379 63.0791 14.6573 60.3912 17.284 55.9517C19.9108 51.5121 19.5907 45.7437 18.3774 43.1011C18.364 43.0709 18.3507 43.0407 18.324 43.0105C18.8041 42.6934 19.2974 42.3611 19.7774 42.044C20.7241 41.4098 21.6575 40.8209 22.4575 40.3377C22.0042 41.742 21.6708 43.4182 21.5108 45.8343C21.3108 48.6732 22.3375 52.3577 23.6842 53.8074C24.2842 54.4416 24.9909 54.4567 25.4443 54.4567C27.0176 54.4567 27.7243 52.9769 28.511 51.2252C29.471 49.0809 30.3377 46.5893 30.3377 46.5893C30.3377 46.5893 29.2577 53.3242 32.1911 53.3242C33.2578 53.3242 34.3379 51.7537 34.8179 50.9534C34.8179 50.9685 34.8179 50.9685 34.8179 50.9685C34.8179 50.9685 34.8445 50.9232 34.8979 50.8175C35.0045 50.6212 35.0712 50.5004 35.0712 50.5004C35.0712 50.5004 35.0712 50.4853 35.0712 50.4702C35.4979 49.6245 36.4579 47.7067 37.8846 44.5205C39.7247 40.4132 41.4981 35.279 41.4981 35.279C41.4981 35.279 41.6581 36.5323 42.2048 38.6162C42.5248 39.8393 43.1915 41.1833 43.7248 42.4819C43.2981 43.1615 43.0315 43.539 43.0315 43.539C43.0315 43.539 43.0315 43.539 43.0448 43.5541C42.6981 44.0675 42.3248 44.6262 41.9114 45.1698C40.458 47.1329 38.7247 49.3829 38.4846 50.0322C38.2046 50.8024 38.2713 51.3611 38.8047 51.8141C39.1913 52.1463 39.8847 52.1916 40.5914 52.1463C41.8981 52.0406 42.8181 51.6782 43.2715 51.4517C43.9781 51.1648 44.8048 50.7269 45.5782 50.0775C47.0049 48.8846 47.8716 47.1782 47.7916 44.9282C47.7516 43.69 47.3916 42.4517 46.9516 41.289C47.0849 41.0776 47.2049 40.8662 47.3382 40.6548C49.5916 36.9249 51.3384 32.8327 51.3384 32.8327C51.3384 32.8327 51.4984 34.086 52.0451 36.1699C52.3117 37.2269 52.8584 38.3746 53.3384 39.492C51.2184 41.44 49.9117 43.7051 49.445 45.185C48.605 47.9333 49.2583 49.1715 50.4983 49.4584C51.0584 49.5943 51.8584 49.2923 52.4451 49.0054C53.1918 48.7336 54.0718 48.2655 54.9118 47.5708C56.3385 46.3779 57.7119 44.7168 57.6319 42.4668C57.5919 41.44 57.3519 40.4283 57.0185 39.4467C58.8186 38.6011 61.1387 38.133 64.0988 38.5256C70.4456 39.3712 71.699 43.8561 71.459 45.7437C71.219 47.6312 69.8856 48.6581 69.4456 48.9752C69.0056 49.2923 68.8589 49.398 68.8989 49.6245C68.9522 49.9567 69.1656 49.9416 69.5389 49.8812C70.0589 49.7755 72.8724 48.3561 72.9924 44.8829C73.1924 40.4434 69.4589 35.5961 62.8587 35.6414ZM13.8972 54.3359C11.7905 56.9332 8.85709 57.9147 7.59039 57.0842C6.23035 56.1933 6.7637 52.3577 9.35044 49.6094C10.9238 47.9333 12.9506 46.3779 14.2973 45.4266C14.6039 45.2151 15.0573 44.9131 15.604 44.5356C15.6973 44.4752 15.7506 44.445 15.7506 44.445C15.8573 44.3695 15.964 44.294 16.0706 44.2185C17.0173 48.1447 16.1106 51.6027 13.8972 54.3359ZM29.231 42.5272C28.4977 44.5507 26.9643 49.7302 26.0309 49.4433C25.2309 49.2017 24.7376 45.2756 25.8709 41.3947C26.4443 39.4467 27.6577 37.1212 28.3643 36.2152C29.511 34.7655 30.7778 34.2823 31.0844 34.8712C31.4711 35.6414 29.6844 41.2588 29.231 42.5272ZM41.8848 49.3829C41.5781 49.5641 41.2847 49.6849 41.1514 49.5943C41.0581 49.5339 41.2847 49.2923 41.2847 49.2923C41.2847 49.2923 42.8714 47.3594 43.4981 46.4836C43.8581 45.9702 44.2848 45.3662 44.7382 44.6866C44.7382 44.747 44.7382 44.8225 44.7382 44.8829C44.7382 47.1933 42.7648 48.7487 41.8848 49.3829ZM51.645 46.8611C51.4184 46.6799 51.4584 46.0759 52.2184 44.1883C52.5117 43.4484 53.2051 42.2101 54.3918 41.0172C54.5251 41.5004 54.6185 41.9685 54.6051 42.4064C54.5918 45.3209 52.7517 46.4081 51.645 46.8611Z" fill="#FF3366"/>
</svg>
