<svg width="54" height="47" viewBox="0 0 54 47" fill="none" xmlns="http://www.w3.org/2000/svg">
<path d="M53.7682 4.1748C53.7682 5.52039 53.2161 6.83149 52.5951 8.03907C43.7625 24.5657 40.5192 29.0511 35.8959 29.6031C36.517 34.2954 33.6532 41.4029 24.1651 41.4029C15.85 41.4029 12.3652 34.744 12.3652 27.1189C13.2623 27.74 16.4365 30.2932 17.4716 30.2932C18.0926 30.2932 18.6102 29.9481 18.8172 29.3616C20.5768 24.7383 23.5785 23.1856 26.9253 22.7716C26.0972 17.4927 28.2019 17.1132 45.8326 1.3801C46.7297 0.552039 47.9373 0 49.2139 0C51.56 0 53.7682 1.72512 53.7682 4.1748ZM31.7901 30.1551L31.6521 29.0511L28.7539 26.7394L27.4083 26.9119C25.3037 27.1534 23.7855 27.9125 22.6815 30.8452C21.9569 32.7773 20.2663 34.0884 18.2997 34.3644C19.4382 36.0551 21.2669 37.2627 24.1651 37.2627C26.9253 37.2627 28.9954 36.5036 30.3065 35.02C31.6866 33.4674 31.9626 31.4317 31.7901 30.1551ZM49.2484 4.41631C48.2823 3.62276 30.5135 18.9073 30.9966 22.1851L31.2036 23.4617L34.0328 25.7043L35.4129 25.5318C39.4497 25.0143 50.2144 5.20987 49.2484 4.41631Z" fill="#FF3366"/>
<path d="M45.6789 42.3546L41.6338 40.3483L45.6789 38.3095L47.7176 34.2644L49.724 38.3095L53.7691 40.3483L49.724 42.3546L47.7176 46.3998L45.6789 42.3546Z" fill="#FF3366"/>
<path d="M4.27558 22.3671L0.230469 20.3607L4.27558 18.322L6.31432 14.2769L8.3207 18.322L12.3658 20.3607L8.3207 22.3671L6.31432 26.4122L4.27558 22.3671Z" fill="#FF3366"/>
<path d="M18.79 14.9908L16.6484 13.9286L18.79 12.8493L19.8693 10.7078L20.9315 12.8493L23.073 13.9286L20.9315 14.9908L19.8693 17.1324L18.79 14.9908Z" fill="#FF3366"/>
</svg>
