<svg width="53" height="46" viewBox="0 0 53 46" fill="none" xmlns="http://www.w3.org/2000/svg">
<path d="M42.0451 41.0902L38 39.0839L42.0451 37.0451L44.0839 33L46.0902 37.0451L50.1353 39.0839L46.0902 41.0902L44.0839 45.1353L42.0451 41.0902Z" fill="#FF3366"/>
<path d="M4.04512 13.6593L0 11.6529L4.04512 9.61421L6.08385 5.56909L8.09023 9.61421L12.1353 11.6529L8.09023 13.6593L6.08385 17.7044L4.04512 13.6593Z" fill="#FF3366"/>
<path d="M18.5595 6.28306L16.418 5.22086L18.5595 4.14153L19.6388 2L20.701 4.14153L22.8426 5.22086L20.701 6.28306L19.6388 8.42459L18.5595 6.28306Z" fill="#FF3366"/>
<path d="M50.2874 14.9143L22.56 42.8294L9.4654 45.0055C8.03963 45.2307 6.80147 43.9925 7.02659 42.5667L9.20276 29.4721L37.1178 1.74469C39.4441 -0.581564 43.1961 -0.581564 45.5224 1.74469L50.2499 6.47224C52.6137 8.83602 52.5762 12.588 50.2874 14.9143ZM20.684 39.1899L22.2973 37.5765V33.9371H18.0575V29.6973H14.4181L12.8047 31.3106L11.7541 37.7641L14.2305 40.2405L20.684 39.1899ZM24.6236 24.632L35.0917 14.1639L32.5779 11.65L17.6073 26.5456H21.2468V30.7478H25.4865V34.3873L40.3446 19.4167L37.8307 16.9029L27.3626 27.371C26.9874 27.7462 26.4996 27.9338 26.0118 27.9338C25.5241 27.9338 24.9988 27.7462 24.6236 27.371C23.8732 26.6206 23.8732 25.3824 24.6236 24.632ZM47.4734 9.1737L42.7459 4.44615C41.9204 3.6207 40.6447 3.65822 39.8193 4.44615L35.5795 8.68594L43.3087 16.4151L47.5485 12.1753C48.3739 11.3499 48.3364 10.0742 47.4734 9.1737Z" fill="#FF3366"/>
</svg>
