<svg width="50" height="45" viewBox="0 0 50 45" fill="none" xmlns="http://www.w3.org/2000/svg">
<path d="M12.1762 34.4213L0.222058 23.2444C-0.0740192 22.9853 -0.0740192 22.5042 0.222058 22.2451L12.1762 11.0312C12.4722 10.7721 12.8793 10.7721 13.1754 11.0682L15.544 13.5849C15.8031 13.881 15.8031 14.3251 15.507 14.5841L6.25463 22.7263L15.47 30.9054C15.7661 31.1644 15.7661 31.6086 15.507 31.9046L13.1384 34.3843C12.8793 34.6804 12.4352 34.6804 12.1762 34.4213ZM16.9874 43.9328C16.6173 43.8217 16.3953 43.4516 16.5063 43.0815L28.7195 1.03861C28.8305 0.668517 29.2376 0.446459 29.6077 0.557488L32.9756 1.55675C33.3457 1.63077 33.5307 2.03787 33.4567 2.37096L21.2435 44.4139C21.1325 44.784 20.7624 45.006 20.3923 44.895L16.9874 43.9328ZM36.8246 34.3843L34.456 31.9046C34.1969 31.6086 34.1969 31.1644 34.493 30.9054L43.7084 22.7263L34.493 14.5471C34.1969 14.2881 34.1969 13.8439 34.456 13.5479L36.8246 11.0312C37.0836 10.7351 37.5278 10.7351 37.8238 10.9942L49.7779 22.2081C50.074 22.4672 50.074 22.9483 49.7779 23.2074L37.8238 34.4213C37.5278 34.6804 37.0836 34.6804 36.8246 34.3843Z" fill="#0089FF"/>
</svg>
