<svg width="63" height="72" viewBox="0 0 63 72" fill="none" xmlns="http://www.w3.org/2000/svg">
<path d="M62.5322 0.344971L56.8353 64.1641L31.2278 71.2633L5.69081 64.1741L0 0.344971L62.5322 0.344971Z" fill="#FFCC00"/>
<path d="M13.0488 29.238L13.7505 37.0663H31.2689V29.238H13.0488Z" fill="#181818"/>
<path d="M31.2675 13.3931H31.2405L11.6377 13.3931L12.3493 21.2215H31.2675V13.3931Z" fill="#181818"/>
<path d="M31.2673 57.7128V49.568L31.2329 49.5772L22.5144 47.223L21.9571 40.9795H17.7206H14.0986L15.1954 53.2712L31.2312 57.7228L31.2673 57.7128Z" fill="#181818"/>
<path d="M40.88 37.0662L39.9713 47.219L31.2402 49.5756V57.72L47.2888 53.2722L47.4066 51.9496L49.2462 31.34L49.4372 29.2379L50.8504 13.3931L31.2402 13.3931V21.2215H42.2712L41.5589 29.2379H31.2402V37.0662H40.88Z" fill="#181818"/>
</svg>
