<?xml version="1.0" encoding="utf-8"?>
<!-- Generator: Adobe Illustrator 24.0.1, SVG Export Plug-In . SVG Version: 6.00 Build 0)  -->
<svg version="1.1" id="Layer_1" xmlns="http://www.w3.org/2000/svg" xmlns:xlink="http://www.w3.org/1999/xlink" x="0px" y="0px"
	 viewBox="0 0 63 72" style="enable-background:new 0 0 63 72;" xml:space="preserve">
<style type="text/css">
	.st0{fill:#FFCC00;}
	.st1{fill:#181818;}
</style>
<path class="st0" d="M62.5,0.3l-5.7,63.8l-25.6,7.1L5.7,64.2L0,0.3H62.5z"/>
<polygon class="st1" points="31.3,13.4 31.2,13.4 31.2,13.4 11.6,13.4 12.3,21.2 31.2,21.2 31.3,21.2 42.3,21.2 41.6,29.2 
	31.2,29.2 31.2,29.2 13,29.2 13.8,37.1 31.3,37.1 31.3,37.1 40.9,37.1 40,47.2 31.3,49.6 31.3,49.6 31.2,49.6 22.5,47.2 22,41 
	17.7,41 14.1,41 15.2,53.3 31.2,57.7 31.3,57.7 31.3,57.7 47.3,53.3 47.4,51.9 49.2,31.3 49.4,29.2 50.9,13.4 "/>
</svg>
