<svg width="56" height="40" viewBox="0 0 56 40" fill="none" xmlns="http://www.w3.org/2000/svg">
<path d="M55.9593 4.01472C55.9593 3.95074 56.0033 3.88845 56.0004 3.8252L38.9111 20.2916L55.98 36.2321C55.99 36.1182 55.9593 36.0034 55.9593 35.8871V4.01472Z" fill="white"/>
<path d="M36.3018 22.8252L29.3255 29.5373C28.9725 29.877 28.5165 30.0473 28.0603 30.0473C27.6136 30.0473 27.1669 29.8843 26.8163 29.5575L19.859 23.0743L2.67871 39.6342C3.09645 39.7843 3.54485 39.9009 4.01442 39.9009H52.1065C52.8038 39.9009 53.4578 39.6885 54.0264 39.3717L36.3018 22.8252Z" fill="white"/>
<path d="M28.0402 25.7098L54.1208 0.586592C53.5303 0.235513 52.843 0 52.1063 0H4.01422C3.05489 0 2.17585 0.37249 1.49121 0.940592L28.0402 25.7098Z" fill="white"/>
<path d="M0 4.62695V35.8869C0 36.2458 0.0824782 36.5917 0.172012 36.9224L17.1392 20.5834L0 4.62695Z" fill="white"/>
</svg>
