<svg width="72" height="73" viewBox="0 0 72 73" fill="none" xmlns="http://www.w3.org/2000/svg">
<path d="M35.9221 0C16.2063 0 0.0751953 16.2607 0.0751953 36.1348C0.0751953 56.0089 16.2063 72.2696 35.9221 72.2696C55.6379 72.2696 71.769 56.0089 71.769 36.1348C71.769 16.2607 55.6379 0 35.9221 0ZM15.9503 56.267C10.5732 50.8468 7.75668 43.6199 7.75668 36.651L35.6661 64.5264C28.4967 64.2683 21.3273 61.6872 15.9503 56.267ZM42.0673 63.7521L8.52483 29.9403C11.3414 17.2931 22.6076 7.74317 35.9221 7.74317C45.396 7.74317 53.5895 12.3891 58.7105 19.3579L54.8698 22.7133C50.5169 16.7769 43.6036 12.9053 35.9221 12.9053C25.9362 12.9053 17.4866 19.3579 14.1579 28.3916L43.6036 58.0738C51.029 55.4927 56.6621 49.0401 58.4545 41.2969H46.1641V36.1348H64.0876C64.0876 49.5563 54.6137 60.9129 42.0673 63.7521Z" fill="#9360FF"/>
</svg>
