<svg width="78" height="33" viewBox="0 0 78 33" fill="none" xmlns="http://www.w3.org/2000/svg">
<path d="M46.2406 11.3741C44.5488 11.3741 43.289 12.2048 43.289 14.2042C43.289 15.7105 44.1193 16.7562 46.1495 16.7562C47.8703 16.7562 49.0389 15.7423 49.0389 14.1419C49.0389 12.3284 47.9931 11.3742 46.2406 11.3742V11.3741ZM42.8571 25.4904C42.4567 25.9817 42.0578 26.5038 42.0578 27.1199C42.0578 28.3489 43.6252 28.7188 45.7783 28.7188C47.5619 28.7188 49.9914 28.5939 49.9914 26.9356C49.9914 25.95 48.8226 25.889 47.3456 25.7964L42.8569 25.4904H42.8571ZM51.9591 11.4671C52.5118 12.1746 53.0969 13.1588 53.0969 14.5733C53.0969 17.9865 50.4215 19.9852 46.5478 19.9852C45.5627 19.9852 44.6709 19.8625 44.118 19.709L43.1029 21.3385L46.1161 21.5226C51.4364 21.8616 54.572 22.0156 54.572 26.104C54.572 29.6413 51.4669 31.6389 46.1161 31.6389C40.5504 31.6389 38.4287 30.2242 38.4287 27.7952C38.4287 26.4109 39.0438 25.6745 40.1201 24.6582C39.105 24.2291 38.7672 23.4608 38.7672 22.6302C38.7672 21.9532 39.105 21.3383 39.6594 20.7537C40.2127 20.1699 40.8275 19.5849 41.5656 18.9086C40.059 18.1707 38.9209 16.5716 38.9209 14.2958C38.9209 10.7599 41.2582 8.33154 45.9621 8.33154C47.2847 8.33154 48.0846 8.45326 48.7919 8.63891L54.7886 8.63891V11.252L51.9591 11.4674" fill="#565656"/>
<path d="M60.2021 5.87886C58.4489 5.87886 57.4345 4.86319 57.4345 3.10976C57.4345 1.35854 58.4489 0.404541 60.2021 0.404541C61.9857 0.404541 63.0005 1.35854 63.0005 3.10976C63.0005 4.86316 61.9857 5.87886 60.2021 5.87886ZM56.2346 24.3584V21.9303L57.8034 21.7157C58.2341 21.6533 58.2952 21.5618 58.2952 21.0994V12.0589C58.2952 11.7214 58.2034 11.5052 57.8949 11.4137L56.2346 10.8289L56.5727 8.33902H62.9386V21.0996C62.9386 21.5926 62.9683 21.6535 63.4308 21.7159L64.9992 21.9305V24.3586H56.2344" fill="#565656"/>
<path d="M77.159 23.1667C75.8362 23.8117 73.8993 24.396 72.1457 24.396C68.4866 24.396 67.1032 22.9214 67.1032 19.4451V11.3892C67.1032 11.2051 67.1032 11.0815 66.8563 11.0815H64.7041V8.34489C67.411 8.03656 68.4864 6.68327 68.8248 3.33154H71.7464V7.69956C71.7464 7.91404 71.7464 8.00694 71.9927 8.00694H76.3282V11.0815H71.7465V18.4305C71.7465 20.245 72.1775 20.9517 73.8371 20.9517C74.6993 20.9517 75.59 20.7371 76.3281 20.4601L77.1592 23.1669" fill="#565656"/>
<path d="M31.5963 15.0977L17.5351 1.03824C16.726 0.228464 15.4128 0.228464 14.6027 1.03824L11.6831 3.95817L15.3865 7.66165C16.2475 7.37095 17.2344 7.56586 17.9203 8.25197C18.6099 8.94235 18.8034 9.93761 18.5054 10.8015L22.0749 14.371C22.9385 14.0734 23.9348 14.2656 24.6244 14.9564C25.5884 15.9202 25.5884 17.4819 24.6244 18.4459C23.6602 19.4103 22.0985 19.4103 21.1338 18.4459C20.4089 17.7205 20.2296 16.6554 20.5967 15.7622L17.2678 12.4333L17.2675 21.1934C17.5025 21.3097 17.7243 21.465 17.9202 21.66C18.884 22.6237 18.884 24.1851 17.9202 25.1504C16.9561 26.114 15.3937 26.114 14.4307 25.1504C13.4668 24.1852 13.4668 22.6238 14.4307 21.66C14.6689 21.4222 14.9445 21.2422 15.2387 21.1216V12.2801C14.9444 12.16 14.6691 11.9813 14.4305 11.7416C13.7004 11.0121 13.5246 9.94049 13.899 9.04391L10.2481 5.39244L0.607525 15.0327C-0.202508 15.8431 -0.202508 17.1564 0.607525 17.9662L14.6678 32.0257C15.4773 32.8355 16.7902 32.8355 17.6008 32.0257L31.5961 18.0327C32.4059 17.2225 32.4059 15.9088 31.5961 15.0989" fill="#F16529"/>
</svg>
