<?xml version="1.0" encoding="utf-8"?>
<!-- Generator: Adobe Illustrator 24.0.1, SVG Export Plug-In . SVG Version: 6.00 Build 0)  -->
<svg version="1.1" id="Layer_1" xmlns="http://www.w3.org/2000/svg" xmlns:xlink="http://www.w3.org/1999/xlink" x="0px" y="0px"
	 viewBox="0 0 58 66" style="enable-background:new 0 0 58 66;" xml:space="preserve">
<style type="text/css">
	.st0{fill:#F16529;}
	.st1{fill:#181818;}
</style>
<path class="st0" d="M5.8,58.8l-5.2-58h56.8l-5.2,58L29,65.2"/>
<polygon class="st1" points="29,19.7 46.2,19.7 46.8,12.6 29,12.6 29,12.6 11.1,12.6 13.1,34.1 29,34.1 29,34.1 37.8,34.1 
	36.9,43.4 29,45.5 21.1,43.4 20.5,37.7 13.4,37.7 14.4,48.9 29,52.9 29,52.9 43.6,48.9 45.5,27 29,27 29,27 19.6,27 19,19.7 
	29,19.7 "/>
</svg>
