<svg width="69" height="50" viewBox="0 0 69 50" fill="none" xmlns="http://www.w3.org/2000/svg">
<path d="M0.000408652 40.8174L8.01031 35.8682C9.55586 38.6655 10.9616 41.0324 14.3336 41.0324C17.5658 41.0324 19.604 39.7417 19.604 34.7206V0.574405H29.4404V34.8626C29.4404 45.2641 23.4683 49.9987 14.7551 49.9987C6.8863 49.9987 2.31874 45.8381 0 40.8166L0.000408652 40.8174ZM34.7831 39.7413L42.7922 35.007C44.9008 38.5223 47.6411 41.1046 52.4887 41.1046C56.5648 41.1046 59.1637 39.0241 59.1637 36.1546C59.1637 32.7115 56.4937 31.4917 51.9969 29.4838L49.5383 28.4068C42.4414 25.3231 37.734 21.4492 37.734 13.2714C37.734 5.73905 43.3548 0 52.1379 0C58.3913 0 62.8881 2.22415 66.1199 8.03458L58.4608 13.0565C56.7742 9.97194 54.9481 8.75259 52.1375 8.75259C49.2566 8.75259 47.4297 10.6177 47.4297 13.0565C47.4297 16.0692 49.2566 17.2894 53.4721 19.1545L55.9311 20.2303C64.2926 23.8892 69 27.6191 69 36.0114C69 45.0508 62.0442 50 52.6993 50C43.5654 50 37.6633 45.5525 34.7827 39.7417" fill="#00C281"/>
</svg>
