<svg width="36" height="42" viewBox="0 0 36 42" fill="none" xmlns="http://www.w3.org/2000/svg">
<path d="M31.5 24.5846V37.2657C31.5 39.3623 30 41.0531 28.14 41.0531H3.39C1.5 41.0531 0 39.3623 0 37.2657V9.36731C0 7.23688 1.5 5.54607 3.39 5.54607H14.64C15.27 5.54607 15.78 6.12095 15.78 6.83109V8.11611C15.78 8.82625 15.27 9.40112 14.64 9.40112H3.81C3.57 9.40112 3.39 9.60402 3.39 9.87455V36.8261C3.39 37.0966 3.57 37.2995 3.81 37.2995H27.72C27.96 37.2995 28.14 37.0966 28.14 36.8261V24.5846C28.14 23.8745 28.65 23.2996 29.28 23.2996H30.42C30.99 23.2996 31.5 23.8745 31.5 24.5846ZM36 1.42049V12.2079C36 12.7489 35.61 13.1547 35.16 13.1547C34.92 13.1547 34.71 13.0533 34.56 12.8842L31.17 9.06296L12.03 30.6377C11.88 30.8068 11.67 30.9083 11.43 30.9083C11.19 30.9083 10.98 30.8068 10.83 30.6377L9.24 28.8455C9.09 28.6764 9 28.4397 9 28.1691C9 27.8986 9.09 27.6619 9.24 27.4928L28.38 5.91805L24.99 2.09681C24.84 1.92773 24.75 1.69102 24.75 1.42049C24.75 0.913244 25.14 0.473633 25.59 0.473633H35.16C35.61 0.473633 36 0.913244 36 1.42049Z" fill="white"/>
</svg>
