<svg width="64" height="25" viewBox="0 0 64 25" fill="none" xmlns="http://www.w3.org/2000/svg">
<path d="M0.679688 0H63.657V21.0656H32.1684V24.5765H18.1734V21.0656H0.679688V0ZM4.17843 17.5547H11.1759V7.02186H14.6747V17.5547H18.1734V3.51093H4.17843V17.5547ZM21.6721 3.51093V21.0656H28.6696V17.5547H35.6671V3.51093H21.6721ZM28.6696 7.02186H32.1684V14.0437H28.6696V7.02186ZM39.1658 3.51093V17.5547H46.1633V7.02186H49.6621V17.5547H53.1608V7.02186H56.6595V17.5547H60.1583V3.51093H39.1658Z" fill="#F12F2D"/>
<path d="M4.17773 17.5547H11.1752V7.02192H14.674V17.5547H18.1727V3.51099H4.17773V17.5547Z" fill="#181818"/>
<path d="M21.6719 3.51099V21.0656H28.6694V17.5547H35.6668V3.51099H21.6719ZM32.1681 14.0438H28.6694V7.02192H32.1681V14.0438Z" fill="#181818"/>
<path d="M39.165 3.51099V17.5547H46.1625V7.02192H49.6613V17.5547H53.16V7.02192H56.6587V17.5547H60.1575V3.51099H39.165Z" fill="#181818"/>
</svg>
