<?xml version="1.0" encoding="utf-8"?>
<!-- Generator: Adobe Illustrator 24.0.1, SVG Export Plug-In . SVG Version: 6.00 Build 0)  -->
<svg version="1.1" id="Layer_1" xmlns="http://www.w3.org/2000/svg" xmlns:xlink="http://www.w3.org/1999/xlink" x="0px" y="0px"
	 viewBox="0 0 542 502" style="enable-background:new 0 0 542 502;" xml:space="preserve">
<style type="text/css">
	.st0{fill:#272727;}
	.st1{fill:#0089FF;}
	.st2{fill:#FF3366;}
	.st3{fill:#F16529;}
	.st4{fill:#181818;}
	.st5{fill:#9360FF;}
	.st6{fill:#F12F2D;}
	.st7{fill:#565656;}
	.st8{fill:#505050;}
	.st9{fill:#00C281;}
	.st10{fill:#FFCC00;}
</style>
<g>
	<path class="st0" d="M273,430c-57.4,0-111.4-22.4-152-63c-40.6-40.6-63-94.6-63-152s22.4-111.4,63-152c40.6-40.6,94.6-63,152-63
		s111.4,22.4,152,63c40.6,40.6,63,94.6,63,152s-22.4,111.4-63,152C384.4,407.6,330.4,430,273,430z M273,1C155,1,59,97,59,215
		c0,118,96,214,214,214s214-96,214-214C487,97,391,1,273,1z"/>
</g>
<g>
	<path class="st0" d="M273,375c-88.2,0-160-71.8-160-160S184.8,55,273,55c88.2,0,160,71.8,160,160S361.2,375,273,375z M273,56
		c-87.7,0-159,71.3-159,159c0,87.7,71.3,159,159,159s159-71.3,159-159C432,127.3,360.7,56,273,56z"/>
</g>
<g>
	<path class="st0" d="M273,319c-57.3,0-104-46.7-104-104c0-57.3,46.7-104,104-104s104,46.7,104,104C377,272.3,330.3,319,273,319z
		 M273,112c-56.8,0-103,46.2-103,103s46.2,103,103,103c56.8,0,103-46.2,103-103S329.8,112,273,112z"/>
</g>
<path class="st1" d="M358,174.3c-2.8-0.9-5.6-1.8-8.4-2.7c0.5-1.9,0.9-3.9,1.3-5.8c6.4-31,2.2-56-12-64.2
	c-13.7-7.9-36.1,0.3-58.7,20c-2.2,1.9-4.4,4-6.5,6c-1.4-1.4-2.9-2.7-4.3-4c-23.7-21-47.5-29.9-61.7-21.6
	c-13.7,7.9-17.7,31.4-12,60.8c0.6,2.9,1.2,5.8,1.9,8.7c-3.3,0.9-6.6,2-9.7,3.1c-27.8,9.6-47.8,24.8-47.8,40.6
	c0,16.3,21.3,32.6,50.2,42.5c2.3,0.8,4.7,1.6,7.1,2.2c-0.8,3.1-1.5,6.2-2.1,9.4c-5.5,28.9-1.2,51.8,12.5,59.7
	c14.1,8.1,37.7-0.2,60.8-20.4c1.8-1.6,3.6-3.3,5.5-5.1c2.3,2.2,4.7,4.4,7.1,6.5c22.3,19.2,44.4,26.9,58,19.1
	c14.1-8.1,18.7-32.8,12.7-62.8c-0.5-2.3-1-4.6-1.6-7c1.7-0.5,3.3-1,4.9-1.5c30.1-10,51.9-26,51.9-42.6
	C406.9,199.4,386.3,184.1,358,174.3z M287.4,130.1c19.4-16.9,37.5-23.5,45.7-18.8c8.8,5.1,12.2,25.5,6.7,52.3
	c-0.4,1.8-0.7,3.5-1.2,5.2c-11.6-2.6-23.3-4.5-35.1-5.5c-6.8-9.7-14.2-19-22.2-27.7C283.4,133.8,285.3,131.9,287.4,130.1z
	 M227.1,242.2c2.7,4.5,5.4,9.1,8.2,13.5c-8.1-0.9-16.2-2.2-24.2-3.9c2.3-7.5,5.2-15.3,8.5-23.2C222.1,233.2,224.5,237.7,227.1,242.2
	z M211.3,179.6c7.5-1.7,15.5-3,23.8-4.1c-2.8,4.3-5.5,8.8-8,13.2c-2.6,4.4-5.1,9-7.4,13.5C216.4,194.5,213.6,186.9,211.3,179.6z
	 M225.6,215.4c3.4-7.2,7.2-14.2,11.2-21.2c4-6.9,8.2-13.6,12.7-20.3c7.8-0.6,15.8-0.9,23.9-0.9s16.2,0.3,23.9,0.9
	c4.4,6.6,8.7,13.3,12.7,20.2c4,6.9,7.8,13.9,11.3,21c-3.5,7.2-7.2,14.3-11.3,21.3c-4,6.9-8.2,13.6-12.6,20.3
	c-7.8,0.6-15.8,0.8-24,0.8c-8.2,0-16.1-0.3-23.8-0.7c-4.5-6.6-8.8-13.4-12.8-20.3C232.8,229.7,229.1,222.6,225.6,215.4z
	 M319.7,242.1c2.7-4.6,5.2-9.2,7.6-13.9c3.3,7.6,6.3,15.2,8.8,23.1c-8.1,1.8-16.3,3.2-24.5,4.2C314.5,251.1,317.1,246.6,319.7,242.1
	z M327.3,202.3c-2.5-4.6-5-9.2-7.6-13.6c-2.6-4.4-5.2-8.8-8-13.1c8.4,1,16.4,2.4,23.9,4.2C333.2,187.4,330.4,194.9,327.3,202.3z
	 M273.5,143.7c5.5,5.9,10.6,12.2,15.4,18.6c-10.3-0.5-20.7-0.5-31,0C263,155.6,268.3,149.3,273.5,143.7z M213,111.7
	c8.8-5.1,28.2,2.2,48.7,20.3c1.3,1.1,2.6,2.4,4,3.6c-8.1,8.7-15.5,18-22.4,27.7c-11.8,1-23.5,2.9-35,5.4c-0.7-2.7-1.3-5.4-1.8-8.1
	C201.6,135.5,204.8,116.5,213,111.7z M200.3,249c-2.2-0.6-4.3-1.3-6.5-2c-11.1-3.5-23.7-9-32.8-16.3c-5.3-3.6-8.8-9.3-9.8-15.6
	c0-9.5,16.5-21.7,40.2-30c3-1,6-2,9-2.9c3.5,11.3,7.8,22.4,12.8,33.1C208.2,226.3,203.9,237.6,200.3,249z M261.1,300.1
	c-8.6,7.9-18.6,14.1-29.4,18.4c-5.8,2.8-12.5,3-18.4,0.7c-8.3-4.8-11.7-23.2-7-47.9c0.6-2.9,1.2-5.8,1.9-8.7
	c11.7,2.5,23.5,4.2,35.4,5.1c6.9,9.7,14.4,19.1,22.5,27.8C264.4,297.1,262.7,298.6,261.1,300.1z M273.8,287.4
	c-5.3-5.7-10.6-12.1-15.8-18.9c5,0.2,10.2,0.3,15.4,0.3c5.4,0,10.6-0.1,15.8-0.4C284.5,275.1,279.3,281.4,273.8,287.4z M342,303.1
	c-0.5,6.4-3.6,12.3-8.6,16.3c-8.3,4.8-26-1.5-45-17.8c-2.2-1.9-4.4-3.9-6.6-6c8-8.8,15.3-18.1,22-27.9c11.9-1,23.8-2.8,35.6-5.5
	c0.5,2.1,1,4.3,1.4,6.4C343.2,279.8,343.6,291.5,342,303.1z M351.4,247.1c-1.5,0.5-2.9,0.9-4.4,1.4c-3.6-11.4-8.1-22.5-13.3-33.2
	c5-10.6,9.2-21.6,12.8-32.8c2.7,0.8,5.3,1.6,7.8,2.4c24.3,8.3,41.3,20.7,41.3,30.2C395.6,225.3,377.5,238.5,351.4,247.1z
	 M273.4,239.3c13.2,0,23.9-10.7,23.9-23.9c0-13.2-10.7-23.9-23.9-23.9c-13.2,0-23.9,10.7-23.9,23.9
	C249.5,228.6,260.2,239.3,273.4,239.3z"/>
<path class="st2" d="M504.7,117.1c-2.7,0-5,0.6-6.9,1.6c-0.7-1.4-1.4-2.6-1.5-3.5c-0.1-1-0.3-1.7-0.1-2.9c0.2-1.2,0.9-3,0.9-3.1
	c0-0.1-0.2-0.8-1.7-0.8c-1.5,0-2.9,0.3-3,0.7c-0.2,0.4-0.4,1.3-0.6,2.2c-0.3,1.4-3.1,6.2-4.7,8.7c-0.5-1-1-1.8-1.1-2.5
	c-0.1-1-0.3-1.7-0.1-2.9c0.2-1.2,0.9-3,0.9-3.1c0-0.1-0.2-0.8-1.7-0.8c-1.5,0-2.9,0.3-3,0.7c-0.2,0.4-0.3,1.3-0.6,2.2
	c-0.3,0.9-4,8.9-5,11c-0.5,1.1-0.9,1.9-1.2,2.5c0,0,0,0-0.1,0.1c-0.3,0.5-0.4,0.8-0.4,0.8s0,0,0,0c-0.2,0.4-0.4,0.7-0.5,0.7
	c-0.1,0-0.2-1,0-2.3c0.6-2.8,1.9-7.1,1.9-7.3c0-0.1,0.3-0.8-0.9-1.2c-1.1-0.4-1.5,0.3-1.6,0.3c-0.1,0-0.2,0.2-0.2,0.2
	s1.2-4.9-2.3-4.9c-2.2,0-5.2,2.3-6.7,4.4c-0.9,0.5-3,1.6-5.1,2.7c-0.8,0.4-1.7,0.9-2.5,1.3c-0.1-0.1-0.1-0.1-0.2-0.2
	c-4.3-4.4-12.1-7.5-11.8-13.5c0.1-2.2,0.9-7.8,15.1-14.7c11.7-5.6,21.1-4.1,22.7-0.6c2.3,4.9-5,14-17.1,15.4c-4.6,0.5-7-1.2-7.7-1.9
	c-0.6-0.7-0.7-0.7-1-0.6c-0.4,0.2-0.1,0.8,0,1.2c0.4,0.9,1.9,2.5,4.4,3.3c2.2,0.7,7.6,1.1,14.2-1.4c7.3-2.8,13.1-10.4,11.4-16.8
	c-1.7-6.5-12.8-8.7-23.4-5c-6.3,2.2-13.1,5.6-18,10c-5.8,5.3-6.7,9.8-6.4,11.8c1.4,6.8,11,11.2,14.9,14.5c-0.2,0.1-0.4,0.2-0.5,0.3
	c-1.9,0.9-9.3,4.7-11.2,8.6c-2.1,4.5,0.3,7.7,1.9,8.1c5,1.3,10.1-1.1,12.8-5c2.7-4,2.4-9.1,1.1-11.5c0,0,0-0.1-0.1-0.1
	c0.5-0.3,1-0.6,1.5-0.9c1-0.6,2-1.1,2.8-1.5c-0.5,1.3-0.8,2.8-1,4.9c-0.2,2.5,0.9,5.8,2.3,7.1c0.6,0.6,1.4,0.6,1.8,0.6
	c1.6,0,2.4-1.3,3.2-2.9c1-1.9,1.9-4.1,1.9-4.1s-1.1,6,1.9,6c1.1,0,2.2-1.4,2.7-2.1c0,0,0,0,0,0s0,0,0.1-0.1c0.1-0.2,0.2-0.3,0.2-0.3
	s0,0,0,0c0.4-0.8,1.4-2.5,2.9-5.3c1.9-3.7,3.8-8.3,3.8-8.3s0.2,1.1,0.7,3c0.3,1.1,1,2.3,1.6,3.5c-0.4,0.6-0.7,0.9-0.7,0.9s0,0,0,0
	c-0.4,0.5-0.8,1-1.2,1.4c-1.5,1.8-3.3,3.8-3.6,4.3c-0.3,0.7-0.2,1.2,0.3,1.6c0.4,0.3,1.1,0.3,1.9,0.3c1.4-0.1,2.3-0.4,2.8-0.6
	c0.7-0.3,1.6-0.6,2.4-1.2c1.5-1.1,2.4-2.6,2.3-4.6c0-1.1-0.4-2.2-0.9-3.3c0.1-0.2,0.3-0.4,0.4-0.6c2.4-3.3,4.2-7,4.2-7
	s0.2,1.1,0.7,3c0.3,0.9,0.9,2,1.4,3c-2.2,1.7-3.6,3.8-4.1,5.1c-0.9,2.5-0.2,3.6,1.1,3.8c0.6,0.1,1.4-0.1,2-0.4
	c0.8-0.2,1.7-0.7,2.6-1.3c1.5-1.1,2.9-2.6,2.8-4.6c0-0.9-0.3-1.8-0.6-2.7c1.9-0.8,4.3-1.2,7.4-0.8c6.6,0.8,7.9,4.8,7.7,6.5
	c-0.3,1.7-1.6,2.6-2.1,2.9c-0.5,0.3-0.6,0.4-0.6,0.6c0.1,0.3,0.3,0.3,0.7,0.2c0.5-0.1,3.5-1.4,3.6-4.5
	C515.5,121.4,511.6,117.1,504.7,117.1z M453.5,133.8c-2.2,2.3-5.3,3.2-6.6,2.5c-1.4-0.8-0.9-4.2,1.8-6.7c1.6-1.5,3.8-2.9,5.2-3.7
	c0.3-0.2,0.8-0.5,1.4-0.8c0.1-0.1,0.2-0.1,0.2-0.1c0.1-0.1,0.2-0.1,0.3-0.2C456.8,128.3,455.8,131.4,453.5,133.8z M469.5,123.3
	c-0.8,1.8-2.4,6.4-3.3,6.2c-0.8-0.2-1.4-3.7-0.2-7.2c0.6-1.7,1.9-3.8,2.6-4.6c1.2-1.3,2.5-1.7,2.8-1.2
	C471.9,117.1,470,122.1,469.5,123.3z M482.8,129.4c-0.3,0.2-0.6,0.3-0.8,0.2c-0.1-0.1,0.1-0.3,0.1-0.3s1.7-1.7,2.3-2.5
	c0.4-0.5,0.8-1,1.3-1.6c0,0.1,0,0.1,0,0.2C485.7,127.5,483.7,128.8,482.8,129.4z M492.9,127.2c-0.2-0.2-0.2-0.7,0.6-2.4
	c0.3-0.7,1-1.8,2.3-2.8c0.1,0.4,0.2,0.9,0.2,1.2C496,125.8,494.1,126.8,492.9,127.2z"/>
<path class="st3" d="M463,269.8l-5-55.7h54.5l-5,55.7l-22.4,6.2"/>
<polygon class="st4" points="485.3,232.3 501.7,232.3 502.4,225.4 485.3,225.4 485.2,225.4 468.1,225.4 470,246.1 485.2,246.1 
	485.2,246.1 493.7,246.1 492.9,255 485.3,257 477.6,255 477.2,249.5 470.3,249.5 471.3,260.2 485.3,264.1 485.3,264.1 499.2,260.2 
	501.1,239.3 485.3,239.3 485.2,239.3 476.3,239.3 475.6,232.3 485.2,232.3 "/>
<path class="st5" d="M55.5,211C37.1,211,22,226.2,22,244.8c0,18.6,15.1,33.8,33.5,33.8c18.4,0,33.5-15.2,33.5-33.8
	C89,226.2,74,211,55.5,211z M36.8,263.6c-5-5.1-7.7-11.8-7.7-18.3l26.1,26.1C48.6,271.1,41.9,268.7,36.8,263.6z M61.3,270.6
	L29.9,239c2.6-11.8,13.2-20.8,25.6-20.8c8.9,0,16.5,4.3,21.3,10.9l-3.6,3.1c-4.1-5.6-10.5-9.2-17.7-9.2c-9.3,0-17.2,6-20.3,14.5
	l27.5,27.8c6.9-2.4,12.2-8.4,13.9-15.7H65.1v-4.8h16.8C81.9,257.3,73,268,61.3,270.6z"/>
<path class="st6" d="M83,354h77.9v26.1h-39v4.3h-17.3v-4.3H83V354z M87.3,375.7H96v-13h4.3v13h4.3v-17.4H87.3V375.7z M109,358.3
	v21.7h8.7v-4.3h8.7v-17.4H109z M117.6,362.7h4.3v8.7h-4.3V362.7z M130.6,358.3v17.4h8.7v-13h4.3v13h4.3v-13h4.3v13h4.3v-17.4H130.6z
	"/>
<path class="st4" d="M87.3,375.7H96v-13h4.3v13h4.3v-17.4H87.3V375.7z"/>
<path class="st4" d="M109,358.3v21.7h8.7v-4.3h8.7v-17.4H109z M122,371.4h-4.3v-8.7h4.3V371.4z"/>
<path class="st4" d="M130.6,358.3v17.4h8.7v-13h4.3v13h4.3v-13h4.3v13h4.3v-17.4H130.6z"/>
<path class="st7" d="M282.6,419.7c-2.1,0-3.7,1-3.7,3.5c0,1.9,1,3.2,3.5,3.2c2.1,0,3.6-1.3,3.6-3.2
	C286.1,420.9,284.8,419.7,282.6,419.7L282.6,419.7z M278.4,437.2c-0.5,0.6-1,1.3-1,2c0,1.5,1.9,2,4.6,2c2.2,0,5.2-0.2,5.2-2.2
	c0-1.2-1.4-1.3-3.3-1.4L278.4,437.2L278.4,437.2z M289.7,419.8c0.7,0.9,1.4,2.1,1.4,3.8c0,4.2-3.3,6.7-8.1,6.7c-1.2,0-2.3-0.2-3-0.3
	l-1.3,2l3.7,0.2c6.6,0.4,10.5,0.6,10.5,5.7c0,4.4-3.8,6.8-10.5,6.8c-6.9,0-9.5-1.8-9.5-4.8c0-1.7,0.8-2.6,2.1-3.9
	c-1.3-0.5-1.7-1.5-1.7-2.5c0-0.8,0.4-1.6,1.1-2.3c0.7-0.7,1.4-1.4,2.4-2.3c-1.9-0.9-3.3-2.9-3.3-5.7c0-4.4,2.9-7.4,8.7-7.4
	c1.6,0,2.6,0.2,3.5,0.4h7.4v3.2L289.7,419.8"/>
<path class="st7" d="M299.9,412.9c-2.2,0-3.4-1.3-3.4-3.4c0-2.2,1.3-3.3,3.4-3.3c2.2,0,3.5,1.2,3.5,3.3
	C303.4,411.6,302.1,412.9,299.9,412.9z M295,435.8v-3l1.9-0.3c0.5-0.1,0.6-0.2,0.6-0.8v-11.2c0-0.4-0.1-0.7-0.5-0.8L295,419l0.4-3.1
	h7.9v15.8c0,0.6,0,0.7,0.6,0.8l1.9,0.3v3H295"/>
<path class="st7" d="M320.9,434.3c-1.6,0.8-4,1.5-6.2,1.5c-4.5,0-6.2-1.8-6.2-6.1v-10c0-0.2,0-0.4-0.3-0.4h-2.7V416
	c3.3-0.4,4.7-2.1,5.1-6.2h3.6v5.4c0,0.3,0,0.4,0.3,0.4h5.4v3.8h-5.7v9.1c0,2.2,0.5,3.1,2.6,3.1c1.1,0,2.2-0.3,3.1-0.6L320.9,434.3"
	/>
<path class="st3" d="M264.5,424.3l-17.4-17.4c-1-1-2.6-1-3.6,0l-3.6,3.6l4.6,4.6c1.1-0.4,2.3-0.1,3.1,0.7c0.9,0.9,1.1,2.1,0.7,3.2
	l4.4,4.4c1.1-0.4,2.3-0.1,3.2,0.7c1.2,1.2,1.2,3.1,0,4.3c-1.2,1.2-3.1,1.2-4.3,0c-0.9-0.9-1.1-2.2-0.7-3.3l-4.1-4.1l0,10.8
	c0.3,0.1,0.6,0.3,0.8,0.6c1.2,1.2,1.2,3.1,0,4.3c-1.2,1.2-3.1,1.2-4.3,0c-1.2-1.2-1.2-3.1,0-4.3c0.3-0.3,0.6-0.5,1-0.7v-10.9
	c-0.4-0.1-0.7-0.4-1-0.7c-0.9-0.9-1.1-2.2-0.7-3.3l-4.5-4.5l-11.9,11.9c-1,1-1,2.6,0,3.6l17.4,17.4c1,1,2.6,1,3.6,0l17.3-17.3
	C265.5,426.9,265.5,425.3,264.5,424.3"/>
<path class="st8" d="M257.1,359h1.6l-2.6-4.5c1.3-0.5,2.3-1.8,2.3-3.2c0-1.9-1.6-3.5-3.5-3.5h-4.5V359h1.5v-4.3h2.6L257.1,359z
	 M252,349.2h3c1.1,0,2,0.9,2,2.1s-0.9,2.1-2,2.1h-3V349.2z M261.9,355.6h6.7c0-0.2,0-0.4,0-0.6c0-2.2-1.6-4.2-4-4.2
	c-2.5,0-4.2,1.8-4.2,4.2c0,2.4,1.7,4.2,4.3,4.2c1.6,0,2.8-0.7,3.5-1.8l-1.2-0.7c-0.4,0.7-1.2,1.2-2.3,1.2
	C263.3,357.9,262.2,357.1,261.9,355.6z M264.7,352.1c1.2,0,2.3,0.7,2.6,2.3h-5.3C262.1,353,263.2,352.1,264.7,352.1z M278.1,351v1.4
	c-0.6-1-1.7-1.6-3-1.6c-2.2,0-4,1.8-4,4.2s1.8,4.2,4,4.2c1.4,0,2.4-0.6,3-1.6v1.4h1.4v-8H278.1z M275.2,357.9
	c-1.6,0-2.8-1.2-2.8-2.9s1.2-2.9,2.8-2.9c1.6,0,2.8,1.2,2.8,2.9S276.8,357.9,275.2,357.9z M286.5,359.2c1.6,0,2.9-0.8,3.6-2.1
	l-1.2-0.7c-0.4,0.8-1.3,1.4-2.4,1.4c-1.6,0-2.8-1.2-2.8-2.8c0-1.6,1.2-2.8,2.8-2.8c1.1,0,2,0.6,2.4,1.4l1.2-0.7
	c-0.6-1.3-2-2.1-3.5-2.1c-2.4,0-4.2,1.8-4.2,4.2S284.1,359.2,286.5,359.2z M297.1,352.3V351h-2.1v-2.2l-1.4,0.4v1.8H292v1.3h1.6v4.3
	c0,2,1.1,2.6,3.5,2.3v-1.2c-1.4,0.1-2.1,0.1-2.1-1.1v-4.3H297.1z"/>
<path class="st8" d="M270.2,466v1.4c-0.6-1-1.7-1.6-3-1.6c-2.3,0-4.1,1.8-4.1,4.2c0,2.3,1.8,4.2,4.1,4.2c1.3,0,2.4-0.6,3-1.6v1.1
	c0,1.5-1,2.4-2.7,2.4c-1.6,0-2.2-0.6-2.6-1.3l-1.2,0.7c0.7,1.3,2,2,3.8,2c2.1,0,4.1-1.2,4.1-3.7V466H270.2z M267.3,472.8
	c-1.6,0-2.8-1.2-2.8-2.8c0-1.6,1.2-2.8,2.8-2.8c1.6,0,2.8,1.2,2.8,2.8C270.2,471.6,268.9,472.8,267.3,472.8z M275.5,464.5
	c0.5,0,0.9-0.4,0.9-0.9s-0.4-0.9-0.9-0.9c-0.5,0-0.9,0.4-0.9,0.9S275,464.5,275.5,464.5z M274.8,474h1.4v-8h-1.4V474z M283.9,467.3
	V466h-2.1v-2.2l-1.4,0.4v1.8h-1.6v1.3h1.6v4.3c0,2,1.1,2.6,3.5,2.3v-1.2c-1.4,0.1-2.1,0.1-2.1-1.1v-4.3H283.9z"/>
<path class="st9" d="M101.5,82l-5,56l-22.5,6.2L51.7,138l-5-56H101.5z"/>
<polygon class="st4" points="74.1,93.4 74.1,93.4 74.1,93.4 56.9,93.4 57.5,100.3 74.1,100.3 74.1,100.3 83.8,100.3 83.1,107.4 
	74.1,107.4 74.1,107.4 58.1,107.4 58.7,114.2 74.1,114.2 74.1,114.2 82.5,114.2 81.8,123.1 74.1,125.2 74.1,125.2 74.1,125.2 
	66.4,123.1 65.9,117.7 62.2,117.7 59,117.7 60,128.4 74.1,132.3 74.1,132.3 74.1,132.3 88.2,128.4 88.3,127.3 89.9,109.2 
	90.1,107.4 91.3,93.4 "/>
<path class="st8" d="M59.9,172.8c2.1,0,3.9-1.1,4.8-2.7l-1.3-0.7c-0.6,1.2-2,2-3.5,2c-2.6,0-4.4-1.9-4.4-4.4c0-2.5,1.8-4.4,4.4-4.4
	c1.5,0,2.9,0.8,3.5,2l1.3-0.8c-0.9-1.6-2.8-2.7-4.8-2.7c-3.4,0-5.9,2.6-5.9,5.8C54.1,170.2,56.5,172.8,59.9,172.8z M71.3,172.8
	c2.3,0,3.9-1.2,3.9-3.2c0-2.2-1.8-2.7-3.8-3.4c-1.6-0.5-2.4-0.9-2.4-1.9c0-1,0.8-1.7,2-1.7c1.4,0,2.1,0.8,2.5,1.7l1.2-0.7
	c-0.6-1.4-2-2.4-3.8-2.4c-1.9,0-3.5,1.2-3.5,3.2c0,2.1,1.7,2.6,3.5,3.2c1.6,0.5,2.6,0.9,2.6,2c0,1-0.8,1.7-2.4,1.7
	c-1.6,0-2.6-0.8-3-2L67,170C67.6,171.7,69.1,172.8,71.3,172.8z M81.3,172.8c2.3,0,3.9-1.2,3.9-3.2c0-2.2-1.8-2.7-3.8-3.4
	c-1.6-0.5-2.4-0.9-2.4-1.9c0-1,0.8-1.7,2-1.7c1.4,0,2.1,0.8,2.5,1.7l1.2-0.7c-0.6-1.4-2-2.4-3.8-2.4c-1.9,0-3.5,1.2-3.5,3.2
	c0,2.1,1.7,2.6,3.5,3.2c1.6,0.5,2.6,0.9,2.6,2c0,1-0.8,1.7-2.4,1.7c-1.6,0-2.6-0.8-3-2l-1.3,0.7C77.7,171.7,79.2,172.8,81.3,172.8z
	 M92,166l2.4-3.3v-1.3h-6.7v1.4h5l-2.6,3.5l0.6,0.9h0.4c1.3,0,2.4,0.7,2.4,2.1c0,1.3-1,2.1-2.4,2.1c-1.2,0-2.1-0.5-2.4-1.6l-1.2,0.7
	c0.6,1.5,2,2.3,3.7,2.3c2,0,3.8-1.2,3.8-3.5C94.9,167.4,93.6,166.3,92,166z"/>
<path class="st8" d="M462.7,165.2c2.3,0,3.9-1.2,3.9-3.2c0-2.2-1.8-2.7-3.8-3.4c-1.6-0.5-2.4-0.9-2.4-1.9c0-1,0.8-1.7,2-1.7
	c1.4,0,2.1,0.8,2.5,1.7l1.2-0.7c-0.6-1.4-2-2.4-3.8-2.4c-1.9,0-3.5,1.2-3.5,3.2c0,2.1,1.7,2.6,3.5,3.2c1.6,0.5,2.6,0.9,2.6,2
	c0,1-0.8,1.7-2.4,1.7c-1.6,0-2.6-0.8-3-2l-1.3,0.7C459,164.1,460.5,165.2,462.7,165.2z M476.2,157v1.4c-0.6-1-1.7-1.6-3-1.6
	c-2.2,0-4,1.8-4,4.2s1.8,4.2,4,4.2c1.4,0,2.4-0.6,3-1.6v1.4h1.4v-8H476.2z M473.3,163.9c-1.6,0-2.8-1.2-2.8-2.9s1.2-2.9,2.8-2.9
	c1.6,0,2.8,1.2,2.8,2.9S474.9,163.9,473.3,163.9z M482.1,159.2c0-0.7,0.7-1.1,1.4-1.1c0.7,0,1.4,0.3,1.7,1l1.2-0.7
	c-0.5-1-1.6-1.7-2.9-1.7c-1.6,0-2.8,1-2.8,2.4c0,2.9,4.5,1.9,4.5,3.6c0,0.8-0.7,1.1-1.6,1.1c-1,0-1.7-0.5-2-1.2l-1.2,0.7
	c0.5,1.1,1.6,1.9,3.2,1.9c1.7,0,3-0.9,3-2.4C486.5,159.9,482.1,160.9,482.1,159.2z M490.1,159.2c0-0.7,0.7-1.1,1.4-1.1
	c0.7,0,1.4,0.3,1.7,1l1.2-0.7c-0.5-1-1.6-1.7-2.9-1.7c-1.6,0-2.8,1-2.8,2.4c0,2.9,4.5,1.9,4.5,3.6c0,0.8-0.7,1.1-1.6,1.1
	c-1,0-1.7-0.5-2-1.2l-1.2,0.7c0.5,1.1,1.6,1.9,3.2,1.9c1.7,0,3-0.9,3-2.4C494.6,159.9,490.1,160.9,490.1,159.2z"/>
<path class="st10" d="M384,381.9l7-4.4c1.3,2.5,2.6,4.5,5.5,4.5c2.8,0,4.6-1.1,4.6-5.6v-30h8.6v30.2c0,9.2-5.2,13.3-12.8,13.3
	C390,390,386,386.3,384,381.9L384,381.9z M414.2,381l7-4.2c1.8,3.1,4.2,5.4,8.4,5.4c3.5,0,5.8-1.8,5.8-4.4c0-3-2.3-4.1-6.2-5.9
	l-2.1-0.9c-6.2-2.7-10.3-6.1-10.3-13.3c0-6.6,4.9-11.7,12.5-11.7c5.4,0,9.3,2,12.2,7.1l-6.7,4.4c-1.5-2.7-3.1-3.8-5.5-3.8
	c-2.5,0-4.1,1.6-4.1,3.8c0,2.7,1.6,3.7,5.3,5.4l2.1,0.9c7.3,3.2,11.4,6.5,11.4,13.9c0,8-6,12.3-14.2,12.3
	C421.9,390,416.8,386.1,414.2,381"/>
<path class="st8" d="M373.2,422.2c2,0,3.8-1.2,3.8-3.5v-7.9h-1.5v7.9c0,1.4-0.9,2-2.3,2c-1.1,0-1.9-0.4-2.2-1.3l-1.3,0.7
	C370.3,421.5,371.6,422.2,373.2,422.2z M386.8,414v1.4c-0.6-1-1.7-1.6-3-1.6c-2.2,0-4,1.8-4,4.2s1.8,4.2,4,4.2c1.4,0,2.4-0.6,3-1.6
	v1.4h1.4v-8H386.8z M384,420.9c-1.6,0-2.8-1.2-2.8-2.9s1.2-2.9,2.8-2.9c1.6,0,2.8,1.2,2.8,2.9S385.6,420.9,384,420.9z M397.1,414
	l-2.5,6.5l-2.5-6.5h-1.5l3.2,8h1.6l3.2-8H397.1z M407.3,414v1.4c-0.6-1-1.7-1.6-3-1.6c-2.2,0-4,1.8-4,4.2s1.8,4.2,4,4.2
	c1.4,0,2.4-0.6,3-1.6v1.4h1.4v-8H407.3z M404.5,420.9c-1.6,0-2.8-1.2-2.8-2.9s1.2-2.9,2.8-2.9c1.6,0,2.8,1.2,2.8,2.9
	S406.1,420.9,404.5,420.9z M415.8,422.2c2.3,0,3.9-1.2,3.9-3.2c0-2.2-1.8-2.7-3.8-3.4c-1.6-0.5-2.4-0.9-2.4-1.9c0-1,0.8-1.7,2-1.7
	c1.4,0,2.1,0.8,2.5,1.7l1.2-0.7c-0.6-1.4-2-2.4-3.8-2.4c-1.9,0-3.5,1.2-3.5,3.2c0,2.1,1.7,2.6,3.5,3.2c1.6,0.5,2.6,0.9,2.6,2
	c0,1-0.8,1.7-2.4,1.7c-1.6,0-2.6-0.8-3-2l-1.3,0.7C412.1,421.1,413.6,422.2,415.8,422.2z M426.4,422.2c1.6,0,2.9-0.8,3.6-2.1
	l-1.2-0.7c-0.4,0.8-1.3,1.4-2.4,1.4c-1.6,0-2.8-1.2-2.8-2.8c0-1.6,1.2-2.8,2.8-2.8c1.1,0,2,0.6,2.4,1.4l1.2-0.7
	c-0.6-1.3-2-2.1-3.5-2.1c-2.4,0-4.2,1.8-4.2,4.2S424,422.2,426.4,422.2z M434,415.3V414h-1.4v8h1.4v-4.2c0-1.9,1.3-2.5,2.5-2.4v-1.5
	C435.5,413.9,434.5,414.2,434,415.3z M439.8,412.5c0.5,0,0.9-0.4,0.9-0.9s-0.4-0.9-0.9-0.9c-0.5,0-0.9,0.4-0.9,0.9
	S439.2,412.5,439.8,412.5z M439,422h1.4v-8H439V422z M448.2,413.8c-1.4,0-2.4,0.6-3,1.6V414h-1.4v11.2h1.4v-4.6c0.6,1,1.7,1.6,3,1.6
	c2.2,0,4-1.8,4-4.2S450.4,413.8,448.2,413.8z M448,420.9c-1.6,0-2.8-1.2-2.8-2.9s1.2-2.9,2.8-2.9c1.6,0,2.8,1.2,2.8,2.9
	S449.6,420.9,448,420.9z M459.3,415.3V414h-2.1v-2.2l-1.4,0.4v1.8h-1.6v1.3h1.6v4.3c0,2,1.1,2.6,3.5,2.3v-1.2
	c-1.4,0.1-2.1,0.1-2.1-1.1v-4.3H459.3z"/>
<path class="st8" d="M38.7,301.4h-5.6v1.3h4.1c-0.3,1.7-1.7,3-4,3c-2.7,0-4.4-1.9-4.4-4.4c0-2.4,1.8-4.4,4.4-4.4
	c1.6,0,2.9,0.8,3.6,2l1.3-0.8c-0.9-1.6-2.8-2.7-4.8-2.7c-3.4,0-5.9,2.6-5.9,5.8c0,3.2,2.4,5.8,5.9,5.8c3.4,0,5.5-2.2,5.5-5.1V301.4z
	 M48.2,299v1.4c-0.6-1-1.7-1.6-3-1.6c-2.2,0-4,1.8-4,4.2s1.8,4.2,4,4.2c1.4,0,2.4-0.6,3-1.6v1.4h1.4v-8H48.2z M45.3,305.9
	c-1.6,0-2.8-1.2-2.8-2.9s1.2-2.9,2.8-2.9c1.6,0,2.8,1.2,2.8,2.9S46.9,305.9,45.3,305.9z M57.2,300.3V299h-2.1v-2.2l-1.4,0.4v1.8
	h-1.6v1.3h1.6v4.3c0,2,1.1,2.6,3.5,2.3v-1.2c-1.4,0.1-2.1,0.1-2.1-1.1v-4.3H57.2z M60.9,301.2c0-0.7,0.7-1.1,1.4-1.1
	c0.7,0,1.4,0.3,1.7,1l1.2-0.7c-0.5-1-1.6-1.7-2.9-1.7c-1.6,0-2.8,1-2.8,2.4c0,2.9,4.5,1.9,4.5,3.6c0,0.8-0.7,1.1-1.6,1.1
	c-1,0-1.7-0.5-2-1.2l-1.2,0.7c0.5,1.1,1.6,1.9,3.2,1.9c1.7,0,3-0.9,3-2.4C65.4,301.9,60.9,302.9,60.9,301.2z M72.5,298.8
	c-1.4,0-2.4,0.6-3,1.6v-4.6h-1.4V307h1.4v-1.4c0.6,1,1.7,1.6,3,1.6c2.2,0,4-1.8,4-4.2S74.8,298.8,72.5,298.8z M72.4,305.9
	c-1.6,0-2.8-1.2-2.8-2.9s1.2-2.9,2.8-2.9c1.6,0,2.8,1.2,2.8,2.9S74,305.9,72.4,305.9z M84.7,299l-2.3,6.3l-2.7-6.3h-1.5l3.5,8
	l-0.1,0.3c-0.4,1.1-1.1,1.7-2.2,1.6v1.3c1.6,0.1,2.9-0.9,3.6-2.7l3.3-8.5H84.7z"/>
<path class="st8" d="M466.8,295.8v4.8h-5.4v-4.8h-1.5V307h1.5v-5h5.4v5h1.5v-11.2H466.8z M479.1,295.8H471v1.4h3.3v9.8h1.5v-9.8h3.3
	V295.8z M492.2,295.8h-1.7l-3.6,5.9l-3.6-5.9h-1.7V307h1.5v-8.7l3.7,6.1h0.2l3.7-6.1v8.8h1.5V295.8z M497.3,305.6v-9.8h-1.5V307h6.3
	v-1.4H497.3z M507.9,300.2h-1.6l0.2-3h4.8v-1.4h-6.1l-0.4,5.8h3.2c1.3,0,2.3,0.7,2.3,2.1c0,1.3-1,2.1-2.4,2.1
	c-1.2,0-2.1-0.6-2.4-1.7l-1.3,0.7c0.5,1.6,2,2.4,3.7,2.4c2,0,3.8-1.2,3.8-3.5C511.7,301.4,509.9,300.2,507.9,300.2z"/>
<path class="st8" d="M106,403.8c-1.1,0-2,0.4-2.6,1.4V404H102v8h1.4v-4.2c0-1.9,1-2.6,2.3-2.6c1.2,0,2,0.7,2,2v4.8h1.4v-4.9
	C109.1,405,107.8,403.8,106,403.8z M116.6,403.8c-1.4,0-2.4,0.6-3,1.6V404h-1.4v11.2h1.4v-4.6c0.6,1,1.7,1.6,3,1.6
	c2.2,0,4-1.8,4-4.2S118.9,403.8,116.6,403.8z M116.5,410.9c-1.6,0-2.8-1.2-2.8-2.9s1.2-2.9,2.8-2.9c1.6,0,2.8,1.2,2.8,2.9
	S118.1,410.9,116.5,410.9z M132.2,403.8c-1,0-2,0.4-2.5,1.4c-0.5-0.9-1.3-1.4-2.4-1.4c-1,0-1.8,0.4-2.4,1.3V404h-1.4v8h1.4v-4.4
	c0-1.7,1-2.4,2-2.4c1,0,1.7,0.7,1.7,2v4.9h1.4v-4.4c0-1.7,0.8-2.4,2-2.4c1.1,0,1.8,0.7,1.8,2v4.9h1.4v-5
	C135.2,405,134,403.8,132.2,403.8z"/>
</svg>
