<svg width="49" height="33" viewBox="0 0 49 33" fill="none" xmlns="http://www.w3.org/2000/svg">
<path d="M33.2036 0.413767L48.4285 15.4929C48.7696 15.8307 48.7696 16.3835 48.4285 16.7213L33.2036 31.8005C32.8625 32.1383 32.3044 32.1383 31.9633 31.8005L30.5369 30.3571C30.1959 30.0192 30.1959 29.4664 30.5369 29.1286L41.8238 17.9498H1.51349C1.01736 17.9805 0.614258 17.5813 0.614258 17.1206V15.0937C0.614258 14.6023 1.01736 14.2337 1.48248 14.2337H41.7928L30.5369 3.05492C30.1959 2.7171 30.1959 2.1643 30.5369 1.82648L31.9633 0.413767C32.3044 0.0759449 32.8625 0.0759449 33.2036 0.413767Z" fill="#282828"/>
</svg>
