<svg width="222" height="195" viewBox="0 0 222 195" fill="none" xmlns="http://www.w3.org/2000/svg">
<path d="M181.329 63.1921C178.988 62.4086 176.646 61.6687 174.305 60.9723C174.695 59.3619 175.042 57.7515 175.389 56.1411C180.722 30.2005 177.21 9.35232 165.373 2.47545C153.969 -4.09674 135.368 2.7366 116.55 19.1888C114.686 20.7992 112.864 22.4967 111.13 24.1942C109.959 23.0625 108.745 21.9309 107.531 20.8428C87.8027 3.25889 68.0309 -4.14027 56.1938 2.78012C44.8336 9.39584 41.4516 29.0254 46.2211 53.5732C46.698 56.0105 47.2184 58.4044 47.8254 60.8418C45.0504 61.6252 42.3187 62.4957 39.7605 63.4097C16.6066 71.4617 0 84.1709 0 97.3153C0 110.895 17.6906 124.518 41.7551 132.788C43.7063 133.441 45.6574 134.093 47.652 134.659C47.0016 137.271 46.4379 139.839 45.9176 142.494C41.3648 166.65 44.9203 185.8 56.2805 192.373C67.9875 199.162 87.6727 192.199 106.837 175.355C108.355 174.005 109.873 172.613 111.39 171.133C113.298 173.004 115.293 174.789 117.287 176.53C135.845 192.547 154.186 199.032 165.503 192.46C177.21 185.67 181.025 165.083 176.082 140.013C175.692 138.098 175.259 136.139 174.782 134.137C176.169 133.745 177.513 133.31 178.857 132.875C203.876 124.562 222 111.113 222 97.3153C222 84.1273 204.916 71.3311 181.329 63.1921ZM122.664 26.2398C138.793 12.1379 153.839 6.61028 160.69 10.571C168.018 14.7929 170.836 31.8545 166.24 54.2696C165.936 55.7494 165.633 57.1857 165.243 58.622C155.617 56.4458 145.861 54.8789 136.062 54.0084C130.425 45.9129 124.268 38.1655 117.591 30.8969C119.282 29.2865 120.929 27.7632 122.664 26.2398ZM72.4969 119.904C74.7082 123.691 76.9629 127.478 79.3477 131.177C72.5836 130.437 65.8629 129.349 59.2289 127.913C61.1367 121.645 63.5215 115.16 66.2965 108.545C68.291 112.375 70.3289 116.161 72.4969 119.904ZM59.359 67.5445C65.6027 66.1517 72.2367 65.0201 79.1309 64.1496C76.8328 67.7621 74.5781 71.4617 72.4535 75.2048C70.3289 78.9044 68.2477 82.691 66.2965 86.5212C63.5648 80.036 61.2668 73.6815 59.359 67.5445ZM71.2395 97.5329C74.1012 91.5265 77.223 85.6507 80.5184 79.8619C83.8137 74.0732 87.3691 68.4585 91.098 62.9309C97.602 62.4522 104.236 62.191 111 62.191C117.764 62.191 124.441 62.4522 130.902 62.9309C134.587 68.415 138.1 74.0297 141.438 79.7749C144.777 85.5201 147.899 91.3959 150.847 97.3588C147.942 103.365 144.82 109.284 141.482 115.117C138.186 120.906 134.674 126.52 130.989 132.091C124.528 132.57 117.807 132.788 111 132.788C104.193 132.788 97.602 132.57 91.2281 132.178C87.4559 126.651 83.9004 120.993 80.5617 115.204C77.223 109.415 74.1445 103.539 71.2395 97.5329ZM149.546 119.817C151.758 115.987 153.839 112.114 155.877 108.196C158.652 114.507 161.08 120.906 163.205 127.478C156.484 129.001 149.677 130.176 142.826 130.96C145.167 127.304 147.379 123.56 149.546 119.817ZM155.79 86.5212C153.752 82.691 151.671 78.8609 149.503 75.1178C147.379 71.4182 145.167 67.7621 142.869 64.1496C149.85 65.0201 156.527 66.1953 162.771 67.6316C160.777 74.0732 158.435 80.3407 155.79 86.5212ZM111.087 37.5562C115.639 42.518 119.932 47.7409 123.921 53.1379C115.336 52.7462 106.707 52.7462 98.1223 53.1379C102.371 47.5233 106.751 42.3003 111.087 37.5562ZM60.7898 10.8757C68.0742 6.61028 84.2473 12.7037 101.288 27.8502C102.371 28.8078 103.455 29.8523 104.583 30.8969C97.8621 38.1655 91.6617 45.9129 85.9816 54.0084C76.1824 54.8789 66.4699 56.4023 56.8441 58.535C56.2805 56.3152 55.8035 54.0519 55.3266 51.7887C51.2508 30.7228 53.9391 14.8364 60.7898 10.8757ZM50.1668 125.606C48.3457 125.084 46.568 124.518 44.7902 123.909C35.5547 120.993 25.0617 116.379 17.4738 110.329C13.0945 107.282 10.1461 102.582 9.32227 97.3153C9.32227 89.3503 23.0238 79.1656 42.7957 72.2452C45.2672 71.3747 47.782 70.5912 50.2969 69.8513C53.2453 79.2961 56.8008 88.5668 60.9199 97.5329C56.7574 106.629 53.1586 116.031 50.1668 125.606ZM100.724 168.26C93.5695 174.832 85.2879 180.055 76.2691 183.624C71.4562 185.931 65.9062 186.149 60.9633 184.19C54.0691 180.186 51.2074 164.822 55.1098 144.148C55.5867 141.71 56.107 139.273 56.7141 136.879C66.4266 138.968 76.2258 140.404 86.1551 141.144C91.8785 149.283 98.1656 157.074 104.886 164.386C103.499 165.736 102.111 167.041 100.724 168.26ZM111.347 157.684C106.924 152.896 102.502 147.586 98.209 141.884C102.371 142.058 106.664 142.145 111 142.145C115.466 142.145 119.845 142.058 124.181 141.841C120.192 147.368 115.9 152.635 111.347 157.684ZM168.018 170.741C167.627 176.051 165.026 181.013 160.863 184.364C153.969 188.368 139.27 183.145 123.401 169.479C121.58 167.912 119.759 166.214 117.894 164.473C124.528 157.118 130.642 149.327 136.192 141.144C146.121 140.317 156.007 138.794 165.763 136.574C166.196 138.359 166.587 140.143 166.934 141.884C169.058 151.286 169.405 161.079 168.018 170.741ZM175.909 123.952C174.695 124.344 173.481 124.736 172.223 125.084C169.188 115.596 165.459 106.325 161.167 97.3153C165.329 88.4363 168.841 79.2961 171.79 69.9384C174.045 70.5912 176.213 71.2876 178.294 71.984C198.499 78.9479 212.678 89.3067 212.678 97.2282C212.678 105.759 197.545 116.771 175.909 123.952ZM111 117.424C121.97 117.424 130.859 108.501 130.859 97.4893C130.859 86.4777 121.97 77.5551 111 77.5551C100.03 77.5551 91.1414 86.4777 91.1414 97.4893C91.1414 108.501 100.03 117.424 111 117.424Z" fill="#0089FF"/>
</svg>
