<svg width="72" height="54" viewBox="0 0 72 54" fill="none" xmlns="http://www.w3.org/2000/svg">
<path d="M61.2632 31.3865C58.7811 31.3994 56.6239 31.9928 54.8175 32.87C54.1548 31.5671 53.492 30.4061 53.3751 29.5547C53.2451 28.5614 53.0892 27.9551 53.2451 26.7683C53.4011 25.5815 54.1028 23.8916 54.0898 23.7626C54.0768 23.6336 53.9339 23.0273 52.5044 23.0144C51.0749 23.0015 49.8404 23.2853 49.6974 23.6594C49.5545 24.0335 49.2816 24.8849 49.0996 25.7621C48.8527 27.0521 46.2407 31.6574 44.7462 34.0697C44.2654 33.128 43.8495 32.3024 43.7586 31.6445C43.6286 30.6512 43.4727 30.0449 43.6286 28.8581C43.7845 27.6713 44.4863 25.9814 44.4733 25.8524C44.4603 25.7234 44.3174 25.1171 42.8879 25.1042C41.4584 25.0913 40.2238 25.3751 40.0809 25.7492C39.9379 26.1233 39.782 27.0005 39.4831 27.8519C39.1842 28.7033 35.7145 36.3917 34.8048 38.3783C34.337 39.3974 33.9341 40.2101 33.6482 40.7648C33.6482 40.7648 33.6352 40.8035 33.5962 40.868C33.3493 41.3454 33.2064 41.6034 33.2064 41.6034C33.2064 41.6034 33.2064 41.6034 33.2064 41.6163C33.0114 41.9646 32.8035 42.2871 32.6996 42.2871C32.6216 42.2871 32.4786 41.3583 32.7256 40.094C33.2454 37.4237 34.4799 33.2699 34.4669 33.128C34.4669 33.0506 34.7008 32.3282 33.6612 31.9541C32.6476 31.58 32.2837 32.1992 32.1927 32.1992C32.1018 32.1992 32.0368 32.4185 32.0368 32.4185C32.0368 32.4185 33.1674 27.7487 29.8796 27.7487C27.8263 27.7487 24.9934 29.9804 23.5899 31.9928C22.7062 32.4701 20.8219 33.4892 18.8076 34.5857C18.0409 35.0114 17.2482 35.4371 16.5074 35.837C16.4554 35.7854 16.4035 35.7209 16.3515 35.6693C12.3749 31.451 5.01959 28.4711 5.33148 22.808C5.44843 20.744 6.16317 15.3259 19.4574 8.7469C30.3994 3.39338 39.1062 4.87689 40.6137 8.1664C42.7709 12.862 35.9484 21.5825 24.6425 22.8467C20.328 23.324 18.0669 21.6728 17.4951 21.0536C16.8973 20.4086 16.8063 20.3699 16.5854 20.4989C16.2215 20.6924 16.4554 21.2729 16.5854 21.6083C16.9233 22.4855 18.3138 24.0335 20.6659 24.7946C22.7452 25.4654 27.8003 25.8395 33.9211 23.4917C40.7696 20.8601 46.1237 13.5457 44.5513 7.4182C42.9788 1.20037 32.5826 -0.850741 22.7452 2.61937C16.8973 4.68338 10.5556 7.9342 5.99424 12.1654C0.5752 17.1964 -0.282489 21.5696 0.0683837 23.4014C1.32893 29.903 10.3607 34.1342 13.9733 37.2689C13.7914 37.3721 13.6225 37.4624 13.4795 37.5398C11.6732 38.4299 4.78567 42.0033 3.0703 45.783C1.121 50.0658 3.38218 53.136 4.87664 53.5488C9.51596 54.8259 14.2852 52.5297 16.8453 48.7371C19.4054 44.9445 19.0935 40.0166 17.9109 37.7591C17.8979 37.7333 17.8849 37.7075 17.8589 37.6817C18.3268 37.4108 18.8076 37.127 19.2754 36.8561C20.1981 36.3143 21.1078 35.8112 21.8875 35.3984C21.4456 36.5981 21.1208 38.03 20.9648 40.094C20.7699 42.5193 21.7705 45.6669 23.083 46.9053C23.6678 47.4471 24.3566 47.46 24.7984 47.46C26.3319 47.46 27.0206 46.1958 27.7873 44.6994C28.723 42.8676 29.5677 40.739 29.5677 40.739C29.5677 40.739 28.5151 46.4925 31.374 46.4925C32.4137 46.4925 33.4663 45.1509 33.9341 44.4672C33.9341 44.4801 33.9341 44.4801 33.9341 44.4801C33.9341 44.4801 33.9601 44.4414 34.0121 44.3511C34.1161 44.1834 34.181 44.0802 34.181 44.0802C34.181 44.0802 34.181 44.0673 34.181 44.0544C34.5969 43.332 35.5325 41.6937 36.923 38.9717C38.7164 35.4629 40.4448 31.0769 40.4448 31.0769C40.4448 31.0769 40.6007 32.1476 41.1335 33.9278C41.4454 34.9727 42.0952 36.1208 42.615 37.2302C42.1991 37.8107 41.9392 38.1332 41.9392 38.1332C41.9392 38.1332 41.9392 38.1332 41.9522 38.1461C41.6143 38.5847 41.2505 39.062 40.8476 39.5264C39.4311 41.2035 37.7417 43.1256 37.5078 43.6803C37.2349 44.3382 37.2999 44.8155 37.8197 45.2025C38.1966 45.4863 38.8723 45.525 39.5611 45.4863C40.8346 45.396 41.7313 45.0864 42.1731 44.8929C42.8619 44.6478 43.6676 44.2737 44.4213 43.719C45.8118 42.6999 46.6565 41.2422 46.5785 39.32C46.5395 38.2622 46.1887 37.2044 45.7598 36.2111C45.8898 36.0305 46.0067 35.8499 46.1367 35.6693C48.3329 32.483 50.0353 28.9871 50.0353 28.9871C50.0353 28.9871 50.1912 30.0578 50.724 31.838C50.9839 32.741 51.5167 33.7214 51.9846 34.676C49.9183 36.3401 48.6448 38.2751 48.1899 39.5393C47.3712 41.8872 48.008 42.945 49.2166 43.1901C49.7624 43.3062 50.5421 43.0482 51.1139 42.8031C51.8416 42.5709 52.6993 42.171 53.518 41.5776C54.9085 40.5584 56.247 39.1394 56.1691 37.2173C56.1301 36.3401 55.8962 35.4758 55.5713 34.6373C57.3256 33.9149 59.5868 33.515 62.4718 33.8504C68.6575 34.5728 69.8791 38.4041 69.6452 40.0166C69.4113 41.6292 68.1117 42.5064 67.6829 42.7773C67.254 43.0482 67.1111 43.1385 67.1501 43.332C67.2021 43.6158 67.41 43.6029 67.7739 43.5513C68.2807 43.461 71.0227 42.2484 71.1396 39.2813C71.3346 35.4887 67.6959 31.3478 61.2632 31.3865ZM13.5445 47.3568C11.4912 49.5756 8.63228 50.4141 7.39773 49.7046C6.07221 48.9435 6.59202 45.6669 9.11311 43.3191C10.6466 41.8872 12.6218 40.5584 13.9344 39.7457C14.2333 39.5651 14.6751 39.3071 15.2079 38.9846C15.2989 38.933 15.3508 38.9072 15.3508 38.9072C15.4548 38.8427 15.5588 38.7782 15.6627 38.7137C16.5854 42.0678 15.7017 45.0219 13.5445 47.3568ZM28.4891 37.2689C27.7743 38.9975 26.2799 43.4223 25.3702 43.1772C24.5905 42.9708 24.1097 39.6167 25.2143 36.3014C25.7731 34.6373 26.9556 32.6507 27.6444 31.8767C28.762 30.6383 29.9965 30.2255 30.2954 30.7286C30.6723 31.3865 28.9309 36.1853 28.4891 37.2689ZM40.8216 43.1256C40.5227 43.2804 40.2368 43.3836 40.1069 43.3062C40.0159 43.2546 40.2368 43.0482 40.2368 43.0482C40.2368 43.0482 41.7833 41.3969 42.3941 40.6487C42.7449 40.2101 43.1608 39.6941 43.6026 39.1136C43.6026 39.1652 43.6026 39.2297 43.6026 39.2813C43.6026 41.2551 41.6793 42.5838 40.8216 43.1256ZM50.3342 40.9712C50.1133 40.8164 50.1522 40.3004 50.893 38.6879C51.1789 38.0558 51.8546 36.998 53.0112 35.9789C53.1412 36.3917 53.2321 36.7916 53.2191 37.1657C53.2061 39.6554 51.4128 40.5842 50.3342 40.9712Z" fill="#FF3366"/>
</svg>
