<svg width="52" height="31" viewBox="0 0 52 31" fill="none" xmlns="http://www.w3.org/2000/svg">
<path d="M50.8149 2.10219C51.1721 0.89125 50.8149 0 49.0966 0H43.4108C41.9628 0 41.2967 0.765312 40.9396 1.61781C40.9396 1.61781 38.0436 8.69937 33.9506 13.2912C32.6281 14.6184 32.0199 15.0447 31.2959 15.0447C30.9388 15.0447 30.3885 14.6184 30.3885 13.4075V2.10219C30.3885 0.649062 29.9831 0 28.7861 0H19.8471C18.9397 0 18.3992 0.678125 18.3992 1.30781C18.3992 2.68344 20.4457 3.00312 20.658 6.87813V15.2869C20.658 17.1275 20.3298 17.4666 19.6058 17.4666C17.6752 17.4666 12.9837 10.3559 10.2035 2.21844C9.64363 0.639375 9.09339 0 7.63575 0H1.94996C0.328212 0 0 0.765312 0 1.61781C0 3.12906 1.93066 10.6369 8.98721 20.5569C13.6884 27.3284 20.3105 31 26.3342 31C29.9541 31 30.3982 30.1863 30.3982 28.7816C30.3982 22.3103 30.07 21.7 31.8848 21.7C32.7246 21.7 34.1726 22.1263 37.5513 25.3909C41.4126 29.2659 42.0497 31 44.212 31H49.8978C51.5196 31 52.3401 30.1863 51.8671 28.5781C50.7859 25.1972 43.4784 18.2416 43.1502 17.7766C42.3103 16.6916 42.5517 16.2072 43.1502 15.2384C43.1598 15.2288 50.1005 5.425 50.8149 2.10219Z" fill="white"/>
</svg>
